<svg version="1.1" id="Layer_19" xmlns="http://www.w3.org/2000/svg" x="0" y="0" viewBox="0 0 500 500" style="enable-background:new 0 0 500 500" xml:space="preserve"><style>.st1{fill:#ae5b25}.st3{fill:#e5894a}.st4{fill:#f89c5d}</style><path d="M358.57 41.9H143.79c-4.71 0-8.52-3.81-8.52-8.52 0-4.71 3.81-8.52 8.52-8.52h214.78c4.71 0 8.52 3.81 8.52 8.52 0 4.71-3.81 8.52-8.52 8.52z" style="fill:#f69c5d"/><path class="st1" d="M308.3 477.14H194.06a8.6 8.6 0 0 1-8.6-8.6 8.6 8.6 0 0 1 8.6-8.6H308.3a8.6 8.6 0 0 1 8.6 8.6 8.6 8.6 0 0 1-8.6 8.6z"/><path class="st1" d="M197.09 459.94c-211.33-211.33-22.93-316.59-22.93-316.59H328.2s188.4 105.27-22.93 316.59H197.09z"/><path d="M351.39 41.9s-31.65 18.95-22.99 101.44H173.96c8.66-82.49-22.99-101.44-22.99-101.44h200.42z" style="fill:#a04b24"/><path class="st3" d="M333.18 70.51s145.45 9.77 60.3 146.51L381.8 196c40.13-84.3-54.57-83.66-54.57-83.66s-2.76-22.5 5.95-41.83zM168.82 70.51s-145.45 9.77-60.3 146.51L120.2 196c-40.13-84.3 54.57-83.66 54.57-83.66s2.76-22.5-5.95-41.83z"/><path class="st4" d="M105.16 323.86v-27.71h16.8v-16.31H96.98c.62 13.64 3.16 28.32 8.18 44.02zM113.38 345.44c14.96 33.89 41.27 72.06 83.72 114.5h108.18c42.45-42.45 68.75-80.61 83.72-114.5H113.38zM396.67 325.52H347.83V295.44h17.06v-15.61H336.4v45.68H286.81V295.43h16.72v-15.61h-28.48v45.68H226.2v-9.61h.01v-20.47h16.72v-15.61h-28.48v45.68h-49.08V295.41h16.45V279.8h-27.87v45.68H105.71c1.13 3.44 2.38 6.93 3.76 10.47h283.46c1.36-3.5 2.61-6.99 3.74-10.43zM405.38 279.83H397v44.66c5.15-15.94 7.75-30.82 8.38-44.66z"/><path class="st4" d="M97.53 259.12c-.36 3.62-.59 7.31-.67 11.1h34.7v35.53h-16.8v10.15h29.54v-45.69H191.4V305.05h-16.45v10.85h29.86v-45.69H252.68V305.05h-16.87v10.85h29.61v-45.69H313.29V305.05h-16.87v10.85h30.37v-45.69H374.66V305.05h-17.21v10.85h29.95v-45.69H405.49c-.08-3.79-.31-7.48-.67-11.1H97.53zM403.57 249.67c-12.03-70.93-75.36-106.33-75.36-106.33H174.16s-63.33 35.39-75.36 106.33h304.77z"/></svg>