<?xml version="1.0" standalone="no"?>
<!DOCTYPE svg PUBLIC "-//W3C//DTD SVG 20010904//EN"
 "http://www.w3.org/TR/2001/REC-SVG-20010904/DTD/svg10.dtd">
<svg version="1.0" xmlns="http://www.w3.org/2000/svg"
 width="225.000000pt" height="225.000000pt" viewBox="0 0 225.000000 225.000000"
 preserveAspectRatio="xMidYMid meet">
<metadata>
Created by potrace 1.10, written by Peter Selinger 2001-2011
</metadata>
<g transform="translate(0.000000,225.000000) scale(0.100000,-0.100000)"
fill="#000000" stroke="none">
<path d="M1940 1692 c-8 -2 -81 -69 -161 -148 -152 -150 -170 -161 -215 -130
-11 8 -26 34 -33 58 -21 70 -79 176 -106 194 -27 18 -39 15 -132 -28 -35 -16
-70 -40 -79 -54 -16 -24 -15 -27 19 -92 59 -114 81 -201 81 -322 0 -125 -19
-202 -75 -311 -52 -102 -47 -117 57 -164 82 -38 111 -42 136 -22 18 13 77 127
99 191 17 47 54 79 83 70 12 -3 87 -71 167 -150 174 -172 172 -171 261 -87
104 100 101 111 -59 262 -137 129 -153 151 -153 215 l0 49 140 142 c170 171
170 171 78 261 -65 64 -83 74 -108 66z m87 -84 c29 -29 53 -61 53 -72 0 -11
-51 -71 -124 -145 -129 -131 -156 -169 -156 -221 0 -56 26 -95 154 -223 89
-90 126 -134 126 -151 0 -15 -19 -41 -54 -75 -30 -28 -58 -51 -61 -51 -21 0
-65 37 -186 156 -124 122 -139 134 -172 134 -50 0 -80 -31 -117 -122 -39 -95
-70 -142 -96 -146 -29 -4 -148 59 -152 82 -2 10 12 53 32 95 50 108 66 179 66
296 0 119 -18 200 -65 302 -19 42 -35 84 -35 95 0 23 137 92 163 82 22 -8 51
-56 87 -145 47 -114 89 -145 153 -114 18 8 91 74 162 145 79 79 137 130 150
130 10 0 43 -23 72 -52z"/>
<path d="M510 1671 c-170 -55 -294 -175 -350 -341 -31 -90 -32 -219 -2 -315
54 -178 210 -323 389 -365 l52 -12 -1 -45 c-2 -37 2 -49 22 -65 20 -17 34 -19
75 -14 86 10 170 59 265 155 95 97 153 190 196 316 37 108 39 247 5 348 -55
163 -181 284 -350 337 -82 26 -223 26 -301 1z m285 -26 c238 -63 399 -312 357
-556 -24 -139 -94 -278 -195 -386 -78 -83 -148 -129 -233 -151 l-66 -17 -19
24 c-10 13 -19 36 -19 51 0 37 -24 56 -101 80 -291 89 -438 416 -310 687 44
93 138 190 228 237 89 45 249 59 358 31z"/>
<path d="M590 1457 c-90 -25 -165 -90 -202 -175 -16 -35 -19 -61 -16 -121 5
-123 56 -201 163 -252 47 -23 74 -29 126 -29 126 0 247 89 279 207 19 67 8
172 -23 226 -68 116 -208 177 -327 144z m190 -47 c81 -41 150 -152 150 -241 0
-47 -32 -128 -68 -169 -159 -187 -467 -75 -466 170 1 77 18 123 70 180 39 43
78 68 129 81 44 12 143 0 185 -21z"/>
</g>
</svg>
