<?xml version="1.0" encoding="utf-8"?>
<!-- Generator: Adobe Illustrator 17.0.0, SVG Export Plug-In . SVG Version: 6.00 Build 0)  -->
<svg version="1.2" baseProfile="tiny" id="Layer_1" xmlns="http://www.w3.org/2000/svg" xmlns:xlink="http://www.w3.org/1999/xlink"
	 x="0px" y="0px" width="225.037px" height="162.461px" viewBox="0 0 225.037 162.461" overflow="visible" xml:space="preserve">
<path fill="#FFFFFF" d="M70.569,0.073c-25.915,0-46.923,21.008-46.923,46.923c0,22.862,16.451,42.039,39.059,46.458
	c3.168,0.619,2.211,1.951,1.971,3.587c-0.548,3.747,0.142,8.71,7.507,8.198c22.513-1.566,45.308-33.355,45.308-58.242
	C117.492,21.081,96.483,0.073,70.569,0.073z M70.492,70.097c-12.988,0-23.516-10.529-23.516-23.516
	c0-12.987,10.528-23.516,23.516-23.516c12.988,0,23.516,10.529,23.516,23.516C94.008,59.568,83.48,70.097,70.492,70.097z
	 M121.884,86.691c-2.003-0.933-3.391-2.964-3.391-5.319c0-1.112,0.309-2.152,0.847-3.038l0.571-0.876
	c5.515-8.88,8.699-19.357,8.699-30.579c0-11.21-3.178-21.678-8.682-30.551l-0.499-0.783c-0.573-0.906-0.904-1.979-0.904-3.13
	c0-2.39,1.429-4.446,3.48-5.36l11.069-5.017c0.741-0.338,1.564-0.526,2.431-0.526c2.126,0,3.988,1.131,5.016,2.824l0.484,0.798
	c3.026,5.095,5.515,10.545,7.388,16.274l0.212,0.664c0.275,0.864,0.756,1.677,1.441,2.362c2.291,2.291,6.004,2.291,8.295,0
	l22.76-22.717c2.291-2.291,6.004-2.291,8.295,0l8.306,8.306c2.291,2.291,2.291,6.004,0,8.295l-20.214,20.188
	c-4.581,4.581-4.582,12.009,0,16.591l20.444,20.422c2.291,2.291,2.291,6.004,0,8.295l-8.305,8.337c-2.291,2.291-6.004,2.291-8.295,0
	l-22.991-22.823c-2.291-2.291-6.004-2.291-8.295,0c-0.716,0.716-1.208,1.571-1.476,2.478l-0.249,0.762
	c-1.893,5.732-4.402,11.183-7.448,16.276l-0.416,0.685c-1.036,1.662-2.879,2.767-4.981,2.767c-0.911,0-1.774-0.208-2.543-0.578
	L121.884,86.691z M16.632,162.461c-5.477,0-9.62-1.427-12.424-4.282C1.402,155.323,0,151.058,0,145.381
	c0-5.677,1.402-9.943,4.208-12.798c2.805-2.855,6.947-4.283,12.424-4.283s9.618,1.428,12.424,4.283
	c2.805,2.855,4.208,7.121,4.208,12.798c0,5.677-1.403,9.943-4.208,12.798C26.251,161.034,22.11,162.461,16.632,162.461z
	 M16.632,156.635c3.054,0,5.403-0.888,7.046-2.664c1.643-1.776,2.465-4.639,2.465-8.59c0-3.951-0.814-6.814-2.44-8.59
	c-1.627-1.775-3.984-2.664-7.071-2.664c-3.055,0-5.403,0.889-7.046,2.664c-1.644,1.776-2.465,4.639-2.465,8.59
	c0,3.951,0.813,6.814,2.44,8.59C11.187,155.747,13.545,156.635,16.632,156.635z M75.029,161.913c-4.017,0-7.046-1.021-9.088-3.063
	c-2.041-2.041-3.063-5.071-3.063-9.088s1.021-7.046,3.063-9.088c2.041-2.041,5.07-3.063,9.088-3.063h9.013v5.03h-8.167
	c-2.091,0-3.603,0.373-4.532,1.12c-0.929,0.747-1.478,1.867-1.643,3.362h14.142v4.979H69.701c0.066,1.461,0.564,2.615,1.494,3.461
	c0.929,0.847,2.49,1.27,4.681,1.27h8.366v5.079H75.029z M133.027,161.913l-9.411-11.802v11.802h-6.673v-33.065h6.673v18.674
	l8.714-9.91h7.768l-9.959,10.856l10.856,13.445H133.027z M179.792,161.913v-5.03h12.599c1.56,0,2.341-0.779,2.341-2.34
	c0-1.527-0.781-2.291-2.341-2.291h-5.029c-2.358,0-4.183-0.631-5.478-1.892c-1.295-1.261-1.942-3.071-1.942-5.428
	c0-2.357,0.638-4.166,1.917-5.427c1.278-1.261,3.096-1.893,5.453-1.893h12.897v5.08h-11.105c-1.593,0-2.39,0.747-2.39,2.241
	c0,1.528,0.797,2.291,2.39,2.291h5.03c2.391,0,4.215,0.631,5.477,1.892c1.261,1.262,1.892,3.071,1.892,5.428
	c0,2.39-0.631,4.216-1.892,5.477c-1.262,1.262-3.087,1.892-5.477,1.892H179.792z M203.326,161.913v-5.03h12.599
	c1.56,0,2.341-0.779,2.341-2.34c0-1.527-0.781-2.291-2.341-2.291h-5.029c-2.358,0-4.183-0.631-5.478-1.892
	c-1.295-1.261-1.942-3.071-1.942-5.428c0-2.357,0.638-4.166,1.917-5.427c1.278-1.261,3.096-1.893,5.453-1.893h12.897v5.08h-11.105
	c-1.593,0-2.39,0.747-2.39,2.241c0,1.528,0.797,2.291,2.39,2.291h5.03c2.391,0,4.215,0.631,5.477,1.892
	c1.261,1.262,1.892,3.071,1.892,5.428c0,2.39-0.631,4.216-1.892,5.477c-1.262,1.262-3.087,1.892-5.477,1.892H203.326z
	 M166.893,147.672v14.242h-6.673v-14.292c0-1.693-0.373-2.913-1.12-3.66c-0.747-0.747-1.967-1.12-3.66-1.12h-5.527v19.072h-6.673
	v-21.294c0-1.661,1.346-3.007,3.007-3.007h10.587c3.518,0,6.075,0.797,7.669,2.391C166.097,141.596,166.893,144.153,166.893,147.672
	z M105.061,128.848v8.764h-5.777c-4.017,0-7.046,1.021-9.088,3.062c-2.041,2.042-3.063,5.072-3.063,9.088
	c0,4.017,1.021,7.046,3.063,9.088c2.041,2.041,5.07,3.063,9.088,3.063h9.443c1.661,0,3.007-1.346,3.007-3.007v-30.058H105.061z
	 M105.061,156.834h-3.984c-2.49,0-4.3-0.556-5.428-1.669c-1.129-1.112-1.693-2.913-1.693-5.403s0.564-4.299,1.693-5.428
	c1.128-1.128,2.938-1.693,5.428-1.693h3.984V156.834z M59.793,137.612v21.294c0,1.661-1.346,3.007-3.007,3.007H46.447
	c-3.519,0-6.084-0.797-7.694-2.39c-1.611-1.594-2.415-4.15-2.415-7.669v-14.242h6.673v14.292c0,1.693,0.373,2.913,1.12,3.66
	c0.747,0.747,1.967,1.12,3.66,1.12h5.328v-19.072H59.793z M169.989,161.913v-24.301h6.673v24.301H169.989z M173.325,128.841
	c-1.842,0-3.336,1.494-3.336,3.336s1.494,3.336,3.336,3.336s3.336-1.494,3.336-3.336S175.167,128.841,173.325,128.841z"/>
</svg>
