<?xml version="1.0" encoding="utf-8"?>
<!-- Generator: Adobe Illustrator 24.0.1, SVG Export Plug-In . SVG Version: 6.00 Build 0)  -->
<svg version="1.1" xmlns="http://www.w3.org/2000/svg" xmlns:xlink="http://www.w3.org/1999/xlink" x="0px" y="0px"
	 viewBox="0 0 500 500" style="enable-background:new 0 0 500 500;" xml:space="preserve">
<style type="text/css">
	.st0{display:none;}
	.st1{display:inline;}
	.st2{fill:#838D92;}
	.st3{fill:#D1D5CE;}
	.st4{fill:#6F6F6E;}
	.st5{fill:#626161;}
	.st6{display:inline;fill:#0B96B9;}
	.st7{fill:#0B96B9;}
	.st8{fill:#46BFE4;}
	.st9{fill:#DEF1F8;}
	.st10{fill:#C0E4F1;}
	.st11{fill:#2C4973;}
	.st12{fill:#436BB2;}
	.st13{fill:#6989C2;}
	.st14{fill:#8EA6D1;}
	.st15{fill:#ECF0F8;}
	.st16{fill:#6B247B;}
	.st17{fill:#9B62A5;}
	.st18{fill:#D3ADD2;}
	.st19{fill:#B886BB;}
	.st20{fill:#DF5C11;}
	.st21{fill:#F5A468;}
	.st22{fill:#EF7D2A;}
	.st23{fill:#F28C47;}
	.st24{fill:#D60F31;}
	.st25{fill:#EEB9C5;}
	.st26{fill:#921826;}
	.st27{fill:#E57389;}
	.st28{fill:#19A382;}
	.st29{fill:#64BEAE;}
	.st30{fill:#36B397;}
	.st31{fill:#94CFC6;}
	.st32{fill:#D3EAE7;}
	.st33{fill:#E8F4F2;}
	.st34{fill:#F2FAFD;}
	.st35{fill:#11BAE6;}
	.st36{display:inline;fill:#B0CB28;}
	.st37{display:inline;fill:#CCD847;}
	.st38{display:inline;fill:#8FBB23;}
	.st39{display:inline;fill:#C6D761;}
	.st40{display:inline;fill:#AE662A;}
	.st41{display:inline;fill:#9A521C;}
	.st42{display:inline;fill:#CE936A;}
	.st43{display:inline;fill:#BB7342;}
	.st44{display:inline;fill:#D7BA98;}
	.st45{display:inline;fill:#D1AD7D;}
	.st46{display:inline;fill:#B69261;}
	.st47{display:inline;fill:#E1C8B1;}
	.st48{fill:#F8C81F;}
	.st49{fill:#9C7F31;}
	.st50{fill:#D8AB1C;}
	.st51{fill:#FAE4A2;}
	.st52{fill:#B3964B;}
	.st53{fill:#65B65B;}
	.st54{fill:#8CC370;}
	.st55{fill:#6EB85D;}
	.st56{fill:#CFE5C6;}
	.st57{display:inline;fill:#FEC82B;}
	.st58{display:inline;fill:#FFE083;}
	.st59{display:inline;fill:#8995CB;}
	.st60{fill:#E99728;}
	.st61{display:inline;fill:#E99728;}
	.st62{display:inline;fill:#F0B529;}
	.st63{fill:#BB7342;}
	.st64{fill:#7B4832;}
	.st65{fill:#885138;}
	.st66{fill:#CE936A;}
	.st67{fill:#C3C2C2;}
	.st68{fill:#FFFFFF;}
	.st69{fill:#F4A09C;}
	.st70{fill:#F7B9BA;}
	.st71{clip-path:url(#SVGID_2_);fill:#F7B9BA;}
	.st72{clip-path:url(#SVGID_6_);}
	.st73{clip-path:url(#SVGID_10_);fill:#F7B9BA;}
	.st74{display:inline;fill:#2C4973;}
	.st75{fill:#8CA4D1;}
	.st76{display:inline;fill:#8EA6D1;}
	.st77{display:inline;fill:#EFBAC5;}
	.st78{display:inline;fill:#D60E32;}
	.st79{display:inline;fill:#E7748A;}
	.st80{display:inline;fill:#931827;}
	.st81{display:inline;fill:#46BFE4;}
	.st82{display:inline;fill:#11BAE6;}
	.st83{display:inline;fill:#DEF1F8;}
	.st84{display:inline;fill:#C0E4F1;}
</style>
<g id="Layer_1" class="st0">
	<g class="st1">
		<path class="st2" d="M315.7,138c0-19.9-16.1-36-36-36H220c-19.9,0-36,16.1-36,36v0c0,0.6,0,1.2,0,1.8h0v68.8h16.4v-29v-11.3v-15.6
			v-11.8v-1v-3.5c0-10.4,8.4-18.9,18.9-18.9h61.1c10.4,0,18.9,8.4,18.9,18.9v3.5v1v11.8v15.6v11.3v29h16.4v-68.8h0
			C315.7,139.2,315.7,138.6,315.7,138L315.7,138z"/>
		<rect x="89.7" y="213.1" class="st3" width="320.6" height="185.3"/>
		<path class="st4" d="M110.4,181.7h42c5.9,0,10.7-4.8,10.7-10.7v-7c0-5.9-4.8-10.7-10.7-10.7h-42c-5.9,0-10.7,4.8-10.7,10.7v7
			C99.7,176.9,104.5,181.7,110.4,181.7z"/>
		<path class="st4" d="M348,181.7h42c5.9,0,10.7-4.8,10.7-10.7v-7c0-5.9-4.8-10.7-10.7-10.7h-42c-5.9,0-10.7,4.8-10.7,10.7v7
			C337.3,176.9,342.1,181.7,348,181.7z"/>
		<g>
			<g>
				<path class="st2" d="M381.8,317.6h-62.1c-3.6,0-6.6-3-6.6-6.6v-4.3c0-3.6,3-6.6,6.6-6.6h62.1c3.6,0,6.6,3,6.6,6.6v4.3
					C388.4,314.7,385.4,317.6,381.8,317.6z"/>
				<path class="st2" d="M178.2,300.2H158V280c0-4.8-3.9-8.7-8.7-8.7c-4.8,0-8.7,3.9-8.7,8.7v20.2h-20.2c-4.8,0-8.7,3.9-8.7,8.7
					s3.9,8.7,8.7,8.7h20.2v20.2c0,4.8,3.9,8.7,8.7,8.7c4.8,0,8.7-3.9,8.7-8.7v-20.2h20.2c4.8,0,8.7-3.9,8.7-8.7
					S183,300.2,178.2,300.2z"/>
				<path class="st2" d="M276,313.8c0.1-0.1,0.2-0.3,0.3-0.5c0.1-0.1,0.1-0.2,0.2-0.3c0.1-0.1,0.1-0.3,0.2-0.4
					c0.1-0.1,0.1-0.2,0.2-0.3c0.1-0.1,0.1-0.3,0.2-0.4c0-0.1,0.1-0.3,0.1-0.4c0-0.1,0.1-0.2,0.1-0.4c0-0.2,0.1-0.3,0.1-0.5
					c0-0.1,0-0.2,0.1-0.3c0-0.2,0.1-0.3,0.1-0.5c0-0.1,0-0.2,0-0.3c0-0.2,0-0.4,0-0.5c0,0,0,0,0-0.1c0-0.1,0-0.2,0-0.3
					c0-0.2,0-0.3,0-0.5c0-0.1,0-0.3-0.1-0.4c0-0.1,0-0.3-0.1-0.4c0-0.2-0.1-0.3-0.1-0.5c0-0.1-0.1-0.2-0.1-0.4
					c0-0.1-0.1-0.3-0.1-0.4c0-0.1-0.1-0.2-0.1-0.4c-0.1-0.1-0.1-0.3-0.2-0.4c-0.1-0.1-0.1-0.3-0.2-0.4c-0.1-0.1-0.1-0.2-0.2-0.4
					c-0.1-0.1-0.2-0.3-0.2-0.4c-0.1-0.1-0.2-0.2-0.2-0.3c-0.1-0.1-0.2-0.2-0.3-0.4c-0.1-0.1-0.2-0.2-0.3-0.3
					c-0.1-0.1-0.2-0.2-0.3-0.3c-0.1-0.1-0.2-0.2-0.4-0.4c-0.1-0.1-0.1-0.1-0.2-0.2l0,0c0,0,0,0-0.1,0c-0.1-0.1-0.3-0.2-0.5-0.3
					c-0.1-0.1-0.2-0.1-0.2-0.2c-0.2-0.1-0.3-0.2-0.5-0.3c-0.1-0.1-0.2-0.1-0.3-0.2c-0.2-0.1-0.3-0.2-0.5-0.2c-0.1,0-0.2-0.1-0.3-0.1
					c-0.1-0.1-0.3-0.1-0.4-0.2c-0.1,0-0.2-0.1-0.4-0.1c-0.1,0-0.3-0.1-0.4-0.1c-0.1,0-0.3-0.1-0.4-0.1c-0.1,0-0.2,0-0.4-0.1
					c-0.2,0-0.3-0.1-0.5-0.1c-0.1,0-0.2,0-0.3,0c-0.2,0-0.4,0-0.5,0c0,0,0,0-0.1,0h-20l23.9-32.8c2.8-3.9,2-9.4-1.9-12.2
					c-3.9-2.8-9.4-2-12.2,1.9l-34.1,46.7c0,0-0.1,0.1-0.1,0.1c-0.1,0.1-0.2,0.3-0.3,0.4c-0.1,0.1-0.1,0.2-0.2,0.3
					c-0.1,0.1-0.2,0.3-0.2,0.4c-0.1,0.1-0.1,0.2-0.2,0.3c-0.1,0.1-0.1,0.3-0.2,0.4c0,0.1-0.1,0.2-0.1,0.4c0,0.1-0.1,0.3-0.1,0.4
					c0,0.1-0.1,0.3-0.1,0.4c0,0.1-0.1,0.3-0.1,0.4c0,0.2-0.1,0.3-0.1,0.5c0,0.1,0,0.3,0,0.4c0,0.2,0,0.3,0,0.5c0,0.1,0,0.1,0,0.2
					c0,0.1,0,0.2,0,0.2c0,0.2,0,0.3,0,0.4c0,0.2,0,0.3,0,0.4c0,0.1,0,0.3,0.1,0.4c0,0.2,0.1,0.3,0.1,0.5c0,0.1,0.1,0.2,0.1,0.3
					c0,0.2,0.1,0.3,0.1,0.5c0,0.1,0.1,0.2,0.1,0.3c0.1,0.2,0.1,0.3,0.2,0.5c0.1,0.1,0.1,0.2,0.2,0.3c0.1,0.1,0.1,0.3,0.2,0.4
					c0.1,0.1,0.1,0.2,0.2,0.4c0.1,0.1,0.2,0.2,0.2,0.3c0.1,0.1,0.2,0.2,0.3,0.4c0.1,0.1,0.2,0.2,0.3,0.3c0.1,0.1,0.2,0.2,0.3,0.3
					c0.1,0.1,0.2,0.2,0.3,0.3c0.1,0.1,0.2,0.2,0.3,0.3c0.1,0.1,0.3,0.2,0.4,0.3c0.1,0,0.1,0.1,0.2,0.1c0,0,0.1,0,0.1,0.1
					c0.1,0.1,0.3,0.2,0.5,0.3c0.1,0.1,0.2,0.1,0.3,0.2c0.2,0.1,0.3,0.2,0.5,0.2c0.1,0.1,0.2,0.1,0.3,0.1c0.1,0.1,0.3,0.1,0.5,0.2
					c0.1,0,0.2,0.1,0.4,0.1c0.1,0,0.3,0.1,0.4,0.1c0.1,0,0.3,0.1,0.4,0.1c0.1,0,0.3,0.1,0.4,0.1c0.1,0,0.3,0.1,0.4,0.1
					c0.1,0,0.3,0,0.4,0c0.2,0,0.3,0,0.5,0c0.1,0,0.1,0,0.2,0h18.3l-25.2,29.6c-3.1,3.7-2.7,9.2,1,12.3c3.7,3.1,9.2,2.7,12.3-1
					l37.5-44c0,0,0,0,0-0.1c0.1-0.1,0.2-0.3,0.3-0.4C275.8,314,275.9,313.9,276,313.8z"/>
			</g>
		</g>
		<path class="st5" d="M77.6,213.1h344.9c7.8,0,14.2-6.3,14.2-14.2v-9.2c0-7.8-6.3-14.2-14.2-14.2H77.6c-7.8,0-14.2,6.3-14.2,14.2
			v9.2C63.4,206.7,69.8,213.1,77.6,213.1z"/>
	</g>
</g>
<g id="Layer_2" class="st0">
	<path class="st6" d="M378.6,162.5c0,3.7-3,6.7-6.7,6.7c-3.7,0-6.7-3-6.7-6.7v-13c0-3.7,3-6.7,6.7-6.7c3.7,0,6.7,3,6.7,6.7V162.5z"
		/>
	<path class="st6" d="M378.6,203c0,3.7-3,6.7-6.7,6.7c-3.7,0-6.7-3-6.7-6.7v-13c0-3.7,3-6.7,6.7-6.7c3.7,0,6.7,3,6.7,6.7V203z"/>
	<g class="st1">
		<path class="st7" d="M137.1,189.8c0,3.7-3,6.7-6.7,6.7c-3.7,0-6.7-3-6.7-6.7v-40.1c0-3.7,3-6.7,6.7-6.7c3.7,0,6.7,3,6.7,6.7V189.8
			z"/>
		<path class="st8" d="M371.9,410.7c0,14.8-12,26.8-26.8,26.8H157.7c-14.8,0-26.8-12-26.8-26.8V89.3c0-14.8,12-26.8,26.8-26.8h187.4
			c14.8,0,26.8,12,26.8,26.8V410.7z"/>
		<path class="st9" d="M358.5,357.2c0,7.4-6,13.4-13.4,13.4H157.7c-7.4,0-13.4-6-13.4-13.4v-241c0-7.4,6-13.4,13.4-13.4h187.4
			c7.4,0,13.4,6,13.4,13.4V357.2z"/>
		<path class="st10" d="M278.1,82.6c0,3.7-3,6.7-6.7,6.7h-40.1c-3.7,0-6.7-3-6.7-6.7c0-3.7,3-6.7,6.7-6.7h40.1
			C275.2,75.9,278.1,79,278.1,82.6"/>
		<path class="st7" d="M271.4,404c0,11.1-9,20.1-20.1,20.1c-11.1,0-20.1-9-20.1-20.1c0-11.1,9-20.1,20.1-20.1
			C262.4,383.9,271.4,392.9,271.4,404"/>
	</g>
</g>
<g id="Layer_6" class="st0">
	<g class="st1">
		<path class="st11" d="M317.3,116.8H210.4c-7.4,0-13.4,5.9-13.4,13.4v40.1c0,7.4,5.9,13.4,13.4,13.4h106.9
			c7.4,0,13.4-5.9,13.4-13.4v-40.1C330.6,122.8,324.6,116.8,317.3,116.8 M317.3,170.2H210.4v-40.1h106.9V170.2z"/>
		<path class="st12" d="M437,410.7c0,14.7-12,26.7-26.7,26.7H89.7c-14.7,0-26.7-12-26.7-26.7v-227c0-14.7,12-26.7,26.7-26.7h320.6
			c14.7,0,26.7,12,26.7,26.7L437,410.7L437,410.7z"/>
		<rect x="103" y="275.9" class="st13" width="293.9" height="161.6"/>
		<path class="st11" d="M63,197c0-14.7,12-26.7,26.7-26.7h320.6c14.7,0,26.7,12,26.7,26.7v78.4c-0.1,12.7-9.1,23.9-22.1,26.2
			l-165,29.1L85.1,301.5c-12.9-2.3-22-13.4-22.1-26.2V197z"/>
		<path class="st14" d="M63,183.7c0-14.7,12-26.7,26.7-26.7h320.6c14.7,0,26.7,12,26.7,26.7V262c-0.1,12.7-9.1,23.9-22.1,26.2
			l-165,29.1L85.1,288.2c-12.9-2.3-22-13.4-22.1-26.2V183.7z"/>
		<path class="st15" d="M223.3,317.2c0-7.4,5.9-13.4,13.4-13.4h26.7c7.4,0,13.4,5.9,13.4,13.4v13.4c0,14.7-12,26.7-26.7,26.7
			c-14.7,0-26.7-12-26.7-26.7"/>
	</g>
</g>
<g id="Layer_7" class="st0">
	<g class="st1">
		<path class="st16" d="M186,192.6c4.6,4.6,4.6,11.9,0,16.5l-70.1,70.1c-4.6,4.6-11.9,4.6-16.5,0l-33-33c-4.6-4.6-4.6-11.9,0-16.5
			l70-70.1c4.6-4.6,11.9-4.6,16.5,0L186,192.6z"/>
		<path class="st16" d="M313.9,192.6c-4.6,4.6-4.6,11.9,0,16.5l70.1,70.1c4.6,4.6,11.9,4.6,16.5,0l33-33c4.6-4.6,4.6-11.9,0-16.5
			l-70.1-70.1c-4.6-4.6-11.9-4.6-16.5,0L313.9,192.6z"/>
		<path class="st17" d="M133.1,167.7c0-6.5,5.2-11.7,11.7-11.7h210.5c6.5,0,11.7,5.2,11.7,11.7v210.6v23.4c0,19.4-15.7,35-35,35
			H168.1c-19.4,0-35-15.7-35-35v-23.4C133.1,378.4,133.1,167.7,133.1,167.7z"/>
		<path class="st18" d="M332.9,261.1v35c0,6.5-5.2,11.7-11.7,11.7h-35c-6.5,0-11.7-5.2-11.7-11.7v-35"/>
		<rect x="274.4" y="249.4" class="st19" width="58.4" height="11.7"/>
		<path class="st16" d="M192.7,156c0,32.3,26.1,58.4,58.4,58.4s58.4-26.1,58.4-58.4"/>
		<path class="st18" d="M204.3,156c0,25.8,20.9,46.7,46.7,46.7s46.7-20.9,46.7-46.7"/>
	</g>
</g>
<g id="Layer_8" class="st0">
	<g class="st1">
		<rect x="209.9" y="75.9" class="st20" width="13.5" height="82"/>
		<rect x="276.7" y="75.9" class="st20" width="13.4" height="82"/>
		<path class="st21" d="M142.8,196.4c0-22.2,18-40.1,40.1-40.1h133.9c22.2,0,40.1,18,40.1,40.1v187.5c0,14.8-12,26.8-27,26.8H169.4
			c-14.6,0-26.6-12-26.6-26.8V196.4z"/>
		<path class="st22" d="M316.9,156.2c22.2,0,40.1,18,40.1,40.1v187.5c0,14.8-12,26.8-27,26.8h-13.2"/>
		<path class="st22" d="M183,156.2c-22.2,0-40.1,18-40.1,40.1v187.5c0,14.8,12,26.8,26.6,26.8H183L183,156.2L183,156.2z"/>
		<path class="st20" d="M169.6,410.6V243.2c0-11.1,9-20.1,20.1-20.1h120.5c11.1,0,20.1,9,20.1,20.1v167.4"/>
		<path class="st23" d="M183,410.5V250c0-7.4,6-13.4,13.4-13.4h107.1c7.4,0,13.4,6,13.4,13.4v160.5"/>
		<path class="st20" d="M223.2,410.6V424c0,7.4-6,13.4-13.4,13.4c-7.4,0-13.4-6-13.4-13.4v-13.4"/>
		<path class="st20" d="M330.1,410.6V424c0,7.4-6,13.4-13.4,13.4c-7.4,0-13.4-6-13.4-13.4v-13.4"/>
		<path class="st21" d="M290.1,75.9c0,7.4-6,13.4-13.4,13.4h-53.6c-7.4,0-13.4-6-13.4-13.4c0-7.4,6-13.4,13.4-13.4h53.6
			C284.1,62.5,290.1,68.5,290.1,75.9"/>
		<path class="st20" d="M290.1,189.7c0-3.7-3-6.7-6.7-6.7h-66.9c-3.7,0-6.7,3-6.7,6.7v13.4c0,3.7,3,6.7,6.7,6.7h66.9
			c3.7,0,6.7-3,6.7-6.7V189.7z"/>
	</g>
</g>
<g id="Layer_3" class="st0">
	<g class="st1">
		<path class="st24" d="M137.3,218.7c0,10.3-8.4,18.7-18.7,18.7H81.1c-10.3,0-18.7-8.4-18.7-18.7c0-10.3,8.4-18.7,18.7-18.7h37.5
			C128.9,200,137.3,208.4,137.3,218.7"/>
		<path class="st24" d="M437.3,218.7c0,10.3-8.4,18.7-18.7,18.7h-37.5c-10.3,0-18.7-8.4-18.7-18.7c0-10.3,8.4-18.7,18.7-18.7h37.5
			C428.9,200,437.3,208.4,437.3,218.7"/>
		<path class="st25" d="M112.4,250v-87.5c0-27.6,22.4-50,50-50h175c27.6,0,50,22.4,50,50V250"/>
		<path class="st24" d="M137.4,306.3V375c0,6.9-5.6,12.5-12.5,12.5H87.4c-6.9,0-12.5-5.6-12.5-12.5v-68.7"/>
		<path class="st24" d="M424.9,306.3V375c0,6.9-5.6,12.5-12.5,12.5h-37.5c-6.9,0-12.5-5.6-12.5-12.5v-68.7"/>
		<path class="st24" d="M224.1,176.8c2.4,2.4,2.4,6.4,0,8.9l-54.7,54.7c-2.4,2.4-6.4,2.4-8.9,0c-2.4-2.4-2.4-6.4,0-8.9l54.7-54.7
			C217.6,174.4,221.5,174.4,224.1,176.8"/>
		<path class="st24" d="M335.5,176.8c2.4,2.4,2.4,6.4,0,8.9l-54.7,54.7c-2.4,2.4-6.4,2.4-8.9,0c-2.4-2.4-2.4-6.4,0-8.9l54.7-54.7
			C329,174.4,333,174.4,335.5,176.8"/>
		<path class="st24" d="M74.9,318.8v-50c0-17.3,14-31.2,31.2-31.2h287.5c17.3,0,31.2,14,31.2,31.2V350H74.9V318.8z"/>
		<rect x="362.4" y="350" class="st26" width="62.5" height="12.7"/>
		<rect x="74.9" y="350" class="st26" width="62.5" height="12.7"/>
		<path class="st25" d="M399.8,299.9c0,6.9-5.6,12.5-12.5,12.5h-25c-6.9,0-12.5-5.6-12.5-12.5v-25c0-6.9,5.6-12.5,12.5-12.5h25
			c6.9,0,12.5,5.6,12.5,12.5V299.9z"/>
		<path class="st25" d="M149.8,300c0,6.9-5.6,12.5-12.5,12.5h-25c-6.9,0-12.5-5.6-12.5-12.5v-25c0-6.9,5.6-12.5,12.5-12.5h25
			c6.9,0,12.5,5.6,12.5,12.5V300z"/>
		<rect x="112.3" y="225.1" class="st27" width="275" height="12.5"/>
		<path class="st26" d="M162.3,350v-37.5c0-20.7,16.7-37.5,37.5-37.5h100c20.7,0,37.5,16.7,37.5,37.5V350"/>
	</g>
</g>
<g id="Layer_4" class="st0">
	<g class="st1">
		<path class="st28" d="M436.6,370.2c0,14.8-11.9,26.7-26.7,26.7H89.2c-14.8,0-26.7-11.9-26.7-26.7v-26.7
			c0-14.8,11.9-26.7,26.7-26.7h320.7c14.8,0,26.7,11.9,26.7,26.7V370.2z"/>
		<path class="st29" d="M89.2,276.6c0-88.6,71.8-160.3,160.3-160.3S409.9,188,409.9,276.6v26.7v40.1c0,14.8-11.9,26.7-26.7,26.7
			H115.9c-14.8,0-26.7-11.9-26.7-26.7v-39.8"/>
		<path class="st30" d="M276.4,118.6l13.2,251.6H303V125.4C294.4,122.4,285.5,120.1,276.4,118.6"/>
		<path class="st30" d="M222.8,118.6c-9.2,1.5-18.2,3.8-26.7,6.9v244.7h13.4L222.8,118.6z"/>
		<path class="st31" d="M209.5,370.2V129.6c0-14.8,11.9-26.7,26.7-26.7h26.7c14.8,0,26.7,11.9,26.7,26.7v240.5"/>
		<path class="st32" d="M309.6,203.7c0-33.2-26.9-60.1-60.1-60.1s-60.1,26.9-60.1,60.1s26.9,60.1,60.1,60.1S309.6,236.9,309.6,203.7
			"/>
		<path class="st29" d="M296.3,203.7c0-25.8-20.9-46.7-46.7-46.7s-46.7,20.9-46.7,46.7s20.9,46.7,46.7,46.7S296.3,229.5,296.3,203.7
			"/>
		<path class="st33" d="M269.6,203.7c0-11-9-20-20-20c-11,0-20,9-20,20c0,11,9,20,20,20C260.6,223.7,269.6,214.7,269.6,203.7"/>
	</g>
</g>
<g id="Layer_5" class="st0">
	<g class="st1">
		<path class="st7" d="M169.7,152.2c0,7.4-6,13.4-13.4,13.4h-40.2c-7.4,0-13.4-6-13.4-13.4c0-7.4,6-13.4,13.4-13.4h40.2
			C163.6,138.9,169.7,144.8,169.7,152.2"/>
		<path class="st8" d="M437.5,205.8c0-29.6-24-53.6-53.6-53.6H116.1c-29.6,0-53.6,24-53.6,53.6v160.8c0,14.8,12,26.7,26.7,26.7
			h321.5c14.8,0,26.7-12,26.7-26.7V205.8z"/>
		<path class="st7" d="M370.5,272.5c0,51.8-42,93.8-93.8,93.8c-51.8,0-93.8-42-93.8-93.8s42-93.8,93.8-93.8
			C328.6,178.7,370.5,220.7,370.5,272.5"/>
		<path class="st10" d="M354.2,272.5c0,43.1-35,78.1-78.1,78.1s-78.1-35-78.1-78.1s35-78.1,78.1-78.1
			C319.2,194.3,354.2,229.3,354.2,272.5"/>
		<path class="st9" d="M338.6,272.5c0,34.5-27.9,62.5-62.5,62.5c-34.5,0-62.5-27.9-62.5-62.5c0-34.5,27.9-62.5,62.5-62.5
			S338.6,237.9,338.6,272.5"/>
		<path class="st34" d="M322.9,272.5c0,25.9-21,46.8-46.8,46.8c-25.9,0-46.8-21-46.8-46.8c0-25.9,21-46.8,46.8-46.8
			C302,225.6,322.9,246.5,322.9,272.5"/>
		<path class="st8" d="M309.5,272.5c0,18.5-15,33.5-33.5,33.5s-33.5-15-33.5-33.5s15-33.5,33.5-33.5
			C294.5,239,309.5,254,309.5,272.5"/>
		<path class="st9" d="M89.2,352.4c0,7.4,6,13.4,13.4,13.4h40.2c7.4,0,13.4-6,13.4-13.4v-160c0-7.4-6-13.4-13.4-13.4h-13.4h-13.4
			c-14.8,0-26.7,12.1-26.7,26.7"/>
		<path class="st7" d="M411.3,192.9c0-7.4-6-13.4-13.4-13.4c-7.4,0-13.4,6-13.4,13.4c0,7.4,6,13.4,13.4,13.4
			C405.3,206.3,411.3,200.4,411.3,192.9"/>
		<path class="st35" d="M357.2,152.2c0,0-13.4,0-13.4-13.4c0-14.8-12-26.7-26.7-26.7h-80.3c-14.8,0-26.7,12-26.7,26.7
			c0,13.4-13.4,13.4-13.4,13.4H357.2z"/>
	</g>
</g>
<g id="Layer_20" class="st0">
	<path class="st36" d="M157.6,222.7c0,7.4-6,13.4-13.4,13.4h-26.8c-7.4,0-13.4-6-13.4-13.4v-93.8c0-7.4,6-13.4,13.4-13.4h26.8
		c7.4,0,13.4,6,13.4,13.4V222.7z"/>
	<path class="st37" d="M104,249.4v160.7c0,14.8,12,26.8,26.8,26.8h241.1c14.8,0,26.8-12,26.8-26.8V249.4l-146.4-134L104,249.4z"/>
	<path class="st36" d="M104,249.4v160.7c0,14.8,12,26.8,26.8,26.8h241.1c14.8,0,26.8-12,26.8-26.8V249.4l-146.4-134L104,249.4z"/>
	<path class="st38" d="M90.5,297.5c-6.9,0-13.7-2.6-18.9-7.9c-10.5-10.4-10.5-27.5,0-37.9l151.3-151.4c15.6-15.6,41.1-15.6,56.8,0
		l151.3,151.3c10.4,10.4,10.4,27.4,0,37.9c-10.4,10.4-27.5,10.4-37.9,0L251.3,147.9L109.4,289.7C104.1,294.9,97.3,297.5,90.5,297.5"
		/>
	<path class="st38" d="M198.1,436.9v-80.4c0-30,23.1-53.6,52.7-53.6c29.5,0,53.6,24,53.6,53.6v80.4"/>
	<path class="st39" d="M211.5,356.5c0-22.2,17.1-40.2,39.3-40.2s40.2,18,40.2,40.2v80.4h-79.5V356.5z"/>
	<path class="st38" d="M278,390c0,3.7-3,6.7-6.7,6.7c-3.7,0-6.7-3-6.7-6.7c0-3.7,3-6.7,6.7-6.7C275,383.4,278,386.4,278,390"/>
	<path class="st38" d="M291.4,236c0,22.2-18,40.2-40.2,40.2s-40.2-18-40.2-40.2s18-40.2,40.2-40.2
		C273.4,195.8,291.4,213.8,291.4,236"/>
	<path class="st39" d="M278,236c0,14.8-12,26.8-26.8,26.8c-14.8,0-26.8-12-26.8-26.8c0-14.8,12-26.8,26.8-26.8
		C266.1,209.2,278,221.2,278,236"/>
</g>
<g id="Layer_9" class="st0">
	<rect x="236.9" y="262.7" class="st40" width="26.7" height="173.3"/>
	<rect x="236.9" y="302.6" class="st41" width="26.7" height="13.1"/>
	<path class="st40" d="M263.6,102.5c0,7.3-6,13.3-13.3,13.3c-7.3,0-13.3-6-13.3-13.3V75.8c0-7.3,6-13.3,13.3-13.3
		c7.3,0,13.3,6,13.3,13.3V102.5z"/>
	<path class="st42" d="M346.8,75.8c12.4-0.1,23.6,8.5,26.2,21.2l36.7,173.4c3.1,14.4-6.2,28.6-20.5,31.7c-1.9,0.4-3.8,0.6-5.6,0.5
		H116.9c-1.9,0-3.7-0.2-5.6-0.5c-14.4-3.1-23.6-17.3-20.5-31.7L127.5,97c2.7-12.6,13.8-21.3,26.2-21.2L346.8,75.8z"/>
	<rect x="316.9" y="302.6" class="st40" width="13.3" height="53.9"/>
	<path class="st41" d="M336.8,365c0,7.3-6,13.3-13.3,13.3c-7.3,0-13.3-6-13.3-13.3v-13.3c0-7.3,6-13.3,13.3-13.3
		c7.3,0,13.3,6,13.3,13.3V365z"/>
	<path class="st43" d="M343.6,422.8c0,7.3-6,13.3-13.3,13.3H170.2c-7.3,0-13.3-6-13.3-13.3s6-13.3,13.3-13.3h160.1
		C337.7,409.4,343.6,415.3,343.6,422.8"/>
</g>
<g id="Layer_10" class="st0">
	<g class="st1">
		<path class="st8" d="M414,331.6c0,13-10.5,23.4-23.4,23.4H109.4c-13,0-23.4-10.5-23.4-23.4V144.1c0-13,10.5-23.4,23.4-23.4h281.2
			c13,0,23.4,10.5,23.4,23.4L414,331.6L414,331.6z"/>
		<path class="st7" d="M132.8,337.5c0,3.2-2.6,5.8-5.8,5.8c-3.2,0-5.8-2.6-5.8-5.8v-11.8c0-3.2,2.6-5.8,5.8-5.8
			c3.2,0,5.8,2.6,5.8,5.8V337.5z"/>
		<path class="st7" d="M378.8,337.5c0,3.2-2.6,5.8-5.8,5.8c-3.2,0-5.8-2.6-5.8-5.8v-11.8c0-3.2,2.6-5.8,5.8-5.8
			c3.2,0,5.8,2.6,5.8,5.8V337.5z"/>
		<path class="st10" d="M437.4,355c0,13-10.5,23.4-23.4,23.4H85.9c-13,0-23.4-10.5-23.4-23.4v-11.8c0-6.5,5.3-11.8,11.8-11.8h351.5
			c6.5,0,11.8,5.3,11.8,11.8L437.4,355L437.4,355z"/>
		<path class="st8" d="M434.3,366.7H65.7c4.1,7,11.6,11.8,20.3,11.8H414C422.7,378.4,430.2,373.7,434.3,366.7"/>
		<path class="st7" d="M203.1,331.6c0,6.5,5.3,11.8,11.8,11.8h70.3c6.5,0,11.8-5.3,11.8-11.8"/>
		<path class="st9" d="M390.6,296.4c0,6.5-5.3,11.8-11.8,11.8H121c-6.5,0-11.8-5.3-11.8-11.8V155.9c0-6.5,5.3-11.8,11.8-11.8h257.8
			c6.5,0,11.8,5.3,11.8,11.8V296.4z"/>
		<path class="st7" d="M255.8,132.4c0,3.2-2.6,5.8-5.8,5.8c-3.2,0-5.8-2.6-5.8-5.8s2.6-5.8,5.8-5.8
			C253.2,126.5,255.8,129.2,255.8,132.4"/>
	</g>
</g>
<g id="Layer_11" class="st0">
	<path class="st44" d="M116,183l133.9-77.3L383.8,183v154.6c0,7.4-5.3,16.4-11.6,20.1l-110.7,63.9c-6.4,3.7-16.9,3.7-23.2,0
		l-110.7-63.9c-6.4-3.7-11.6-12.7-11.6-20.1L116,183z"/>
	<path class="st45" d="M249.9,160.9h-95.7L116,183v154.6c0,7.4,5.2,16.4,11.6,20.1l110.7,63.9c3.2,1.8,7.4,2.8,11.6,2.8V160.9z"/>
	<polygon class="st45" points="383.7,183 249.9,105.7 116,183 249.9,260.3 	"/>
	<polyline class="st46" points="249.9,260.3 383.7,183 249.9,105.7 	"/>
	<path class="st47" d="M298.7,77.1c6.4-3.7,16.9-3.6,23.2,0L432.5,141c6.4,3.7,6.3,9.7,0,13.3L383.3,183l-133.8-77.3L298.7,77.1z"/>
	<path class="st46" d="M383.7,196.6l-133.8,63.7v13.7l48.4,27.1c6.4,3.6,16.9,3.6,23.3-0.1l62.3-35.9L383.7,196.6L383.7,196.6z"/>
	<path class="st44" d="M432.1,210c6.4,3.6,6.4,9.6,0,13.3l-110.7,63.9c-6.4,3.7-16.9,3.7-23.3,0.1l-48.3-27.1L383.8,183L432.1,210z"
		/>
	<path class="st47" d="M201,77.1c-6.4-3.7-16.9-3.6-23.2,0L67.1,141c-6.4,3.7-6.3,9.7,0,13.3l48.9,28.7l133.8-77.3L201,77.1z"/>
	<path class="st46" d="M249.9,260.3L116,196.6v68.6l61.8,35.7c6.4,3.7,16.9,3.7,23.2,0.1l48.9-27.1V260.3z"/>
	<path class="st44" d="M67.1,210.2c-6.4,3.6-6.4,9.6,0,13.3l110.6,63.9c6.4,3.7,16.9,3.7,23.3,0.1l48.5-27.2L115.7,183L67.1,210.2z"
		/>
	<polygon class="st45" points="303.4,359.5 330.2,343.9 330.2,381.8 303.6,397.1 	"/>
</g>
<g id="Layer_12" class="st0">
	<g class="st1">
		<path class="st48" d="M269.6,196.9c-0.5-0.9-1.3-0.9-2.2-0.9c-5,0-9.9,0-14.9,0c-2.3,0-4.5,0-6.8-0.4c-1.1-1.1-0.8-2.5-0.8-3.9
			c0-24.7,0-49.4,0-74c0-4.4,0-8.8,0-13.3c0-1-0.2-2.2,0.7-3c1-0.4,2.1-0.2,3.2-0.2c50.7,0,101.5,0,152.2,0c13.3,0,27.3,9.7,32.4,22
			c2.2,5.4,3.2,10.9,3.1,16.7c0,7.3,0.3,14.6-0.2,21.9c-1.2,14.7-8.9,25-22.2,31.3c-5.7,2.7-11.9,3.2-18.1,3.1
			c-1.2,0-2.3-0.1-3.2,0.9c-1.3-0.5-2.6-0.6-4-0.6c-38.4,0-76.8,0-115.2,0C272.2,196.3,270.9,196.4,269.6,196.9z"/>
		<path class="st48" d="M389.2,206.8c-1,3-2,6-2.8,9.1c-3,10.6-4.1,21.3-2.4,32.2c2,13.2,3.5,26.5,2.6,39.8
			c-0.6,9.5-1.8,19-3.7,28.4c-2,9.4-4.4,18.7-7.1,27.9c-1.5,5.2,3.1,11,8.7,11c8.1,0,13.8,3.9,17.4,11c2.6,5,2.5,10.4,2.1,15.9
			c-0.9,1.1-2.2,0.8-3.4,0.8c-8.9,0-17.7,0-26.6,0c-34.5,0-69,0-103.4,0c-1.4,0-2.9,0.4-4.1-0.8c-0.2-6.2-1.2-12.5,1.1-18.4
			c2.1-5.3,6.5-8.1,12.2-8.2c6.9-0.1,13.9,0,20.8,0c7.5,0,12.3-4,14.6-11.1c2.5-7.9,4.7-15.9,6.4-24.1c1.5-7.4,3.7-14.7,3.3-22.3
			c-0.1-2.2,0.1-4.6-1.2-6.6c-1.6-4.8-3.4-9.6-6.4-13.7c-1.9-2.6-3.4-5.3-4.6-8.2c-1.9-4.3-2.7-8.9-3.2-13.5
			c-0.1-0.8-0.2-1.7,0.5-2.5c0-4.6,0.1-9.3,0-13.9c-0.1-3.2-3.2-5.8-6.7-5.9c-3.1-0.1-6.3-0.2-9.4,0c-6.8,0.4-12.4-3.4-14.5-9.8
			c-1.8-5.6-4.2-11-5.9-16.7c1.1-1.1,2.6-0.7,3.9-0.7c23.8,0,47.5,0,71.3,0c12.7,0,25.4,0,38.1,0
			C387.5,206.5,388.4,206.4,389.2,206.8z"/>
		<path class="st49" d="M266.5,382c45.8,0,91.6,0,137.5,0c0.1,0.8,0.2,1.6,0.2,2.3c0,14.5-0.1,29,0.1,43.5c0.1,5.7-3.3,8.5-8.5,8.5
			c-40.4-0.1-80.9-0.1-121.3,0c-3.1,0-5.6-0.8-7.2-3.7c-0.6-1.2-0.9-2.4-0.9-3.7c0-15.3,0-30.6,0-45.9
			C266.3,382.7,266.4,382.4,266.5,382z"/>
		<path class="st49" d="M245.6,101.4c0,30.9,0,61.8,0,92.7c0,0.5,0.1,1,0.1,1.5c-3.6,0.2-7-1.4-10.4-2.1c-7.8-1.8-15.5-3.8-23.2-5.7
			c-5.9-1.5-11.9-2.9-17.8-4.5c-2.9-0.7-3.5-1.6-3.4-5c0.1-2.1-0.5-2.6-2.6-2.6c-8.6,0.1-17.3-0.1-25.9,0
			c-8.5,0.2-14.7-3.3-18.3-11.1c-1-1.3-0.9-3-1.1-4.5c-0.5-5.6-1-11.2-0.4-16.8c0.4-3.9-0.1-8,1.6-11.7c0.2-0.5,0.4-0.9,0.7-1.3
			c2.6-4.2,6.1-7.2,11-8.6c1.2-0.3,2.4-0.5,3.6-0.5c9.6,0,19.3-0.1,28.9,0c1.8,0,2.5-0.3,2.4-2.3c-0.1-4.1,0.5-4.5,4.6-5.6
			c9.8-2.4,19.5-4.9,29.2-7.4c6.2-1.6,12.5-3.1,18.7-4.6C244.1,101.4,244.8,101.1,245.6,101.4z"/>
		<path class="st50" d="M389.2,206.8c-0.9,0.6-1.9,0.4-2.9,0.4c-36.5,0-73.1,0-109.6,0c-1.1,0-2.1,0-3.2,0
			c-1.7-3.3-2.6-6.9-3.8-10.3c0-0.7,0.2-1.3,1.1-1.3c0.5,0,1,0,1.5,0c39.3,0,78.7,0,118,0c1,0,2.5-0.7,2.5,1.3
			C391.9,200.4,390.6,203.6,389.2,206.8z"/>
		<path class="st48" d="M144.9,130.5c-1.3,3.1-1.8,6.2-1.7,9.6c0.1,6.3,0.1,12.7,0,19c0,1.9,0.5,3.8,0.8,5.7c-1.5-1.8-1.3-4-1.4-6
			c-0.1-3.4,0-3.3-3.4-3.4c-2.3-0.1-4.6,0.6-6.8,0.4c-4.6-0.4-9.3,0.4-13.8-0.1c-4.8-0.5-9.5,0.1-14.2-0.1
			c-5.2-0.1-10.4-0.4-15.6,0.1c-2,0.2-4,0.2-6-0.2c-1.6-0.3-3.3-0.1-5.1,0.2c-3.1,0.5-6.2-0.3-9.4-0.4c-0.7,0-1.1-0.6-1.6-1
			c-1.5-1.4-2.8-3-4.6-4.2c-1.1-0.8-1.5-1.7-0.2-2.8c0.8-0.6,1.6-1.3,2.1-2.1c2.6-3.8,6.3-4.2,10.4-3.5c1.3,0.2,2.2-0.8,3.5-0.6
			c2.5,0.3,5,0.1,7.4,0.6c1.4,0.3,2.4-0.6,3.7-0.6c2.6-0.2,5.1,0.9,7.8,0.7c1.3-0.1,2.4-0.8,3.7-0.7c2.4,0.3,4.9,0.1,7.2,0.6
			c1.5,0.3,2.6-0.6,3.9-0.6c2.5,0,5,0.9,7.4,0.5c4-0.6,8.1,0.6,12,0.1c3.3-0.5,6.5,0,9.7,0c1.5,0,2-0.5,1.9-2
			c-0.2-2.8,0.1-5.5,1.2-8.1C144.2,131,144.4,130.6,144.9,130.5z"/>
		<path class="st49" d="M309.9,253.6c0.3,7.6,2,14.7,6.1,21.2c2.3,3.6,5,7.1,6.4,11.2c0.6,1.8,1.7,3.4,1.3,5.4c-4.6,0-9.1,0-13.7,0
			c-5.8,0-7.9-1.7-9.5-7.1c-2.1-7-4.4-14-6.7-20.9c-1.7-4.9,1.4-9.5,6.7-9.7C303.6,253.5,306.7,253.6,309.9,253.6z"/>
		<path class="st51" d="M384.5,156.1c6.4,0,12.9,0,19.3,0c3.2,0,5.2,1.9,5.2,4.9c0.1,3.2-1.9,5.4-5,5.4c-12.9,0.1-25.7,0-38.6,0
			c-3.2,0-5.4-2.3-5.4-5.2c0-3.1,2.2-5.1,5.6-5.1C372,156.1,378.3,156.1,384.5,156.1z"/>
		<path class="st51" d="M384.5,151.1c-6.3,0-12.6,0-18.9,0c-3.3,0-5.5-2-5.6-4.9c-0.1-3,2.1-5.4,5.4-5.4c12.9-0.1,25.7-0.1,38.6,0
			c3.3,0,5.1,2.3,5,5.6c-0.1,2.8-2.1,4.7-5.2,4.7C397.4,151.1,391,151.1,384.5,151.1C384.5,151.1,384.5,151.1,384.5,151.1z"/>
		<path class="st51" d="M384.5,181.1c-6.4,0-12.7,0-19.1,0c-2.4,0-4.5-1.5-5.2-3.5c-0.7-2.1,0-4.4,2-5.9c0.9-0.7,1.9-1,3-1
			c12.9,0,25.8,0,38.8,0c2.9,0,5,2.1,5,4.9c0,3.1-1.8,5.3-4.8,5.3C397.7,181.1,391.1,181.1,384.5,181.1z"/>
		<path class="st52" d="M158.4,121.9c1.2,0,1.8,0,2.5,0c9.4,0,18.7,0,28.1-0.1c1.6,0,2.3,0.3,2.3,2.1c-0.1,16,0,32-0.1,48
			c0,0.8-0.3,1.7-0.2,2.5c0.1,0.9-0.3,1-0.9,1c-9.9,0-19.7-0.1-29.6-0.1c-0.1,0-0.2-0.1-0.5-0.3c0.8-0.6,1.6-0.4,2.3-0.4
			c6.1,0,12.1-0.1,18.2,0c1.8,0,2.1-0.6,2.1-2.2c-0.1-15.9-0.1-31.7,0-47.6c0-1.7-0.5-2.2-2.2-2.2c-6.4,0.1-12.9,0-19.3,0
			C160.4,122.7,159.6,122.9,158.4,121.9z"/>
		<path class="st51" d="M236.2,173.7c0,3.6-3,6-6.5,5.1c-6.4-1.6-12.8-3.5-19.3-5.2c-1.6-0.4-3.3-0.8-5-1.1c-4.7-1-6.6-4.5-4.5-8.3
			c1.1-1.9,3-2.9,5.5-2.3c6.5,1.6,12.9,3.2,19.3,5.3c2.1,0.7,4.4,1,6.6,1.5C234.9,169.2,236.2,171,236.2,173.7z"/>
		<path class="st51" d="M205.3,134.4c-2.7-0.1-4.9-1.8-5.1-4.1c-0.3-3.2,1.4-5.7,4.5-6.2c4.1-0.6,7.9-2.1,11.9-3.1
			c4.4-1,8.7-2.3,13.1-3.3c3.1-0.7,5.8,0.8,6.5,3.6c0.7,2.7-0.8,5.2-4,6.2c-5.3,1.6-10.6,2.9-15.9,4.3c-2.8,0.7-5.7,1.2-8.4,2.2
			C207,134.3,206.1,134.3,205.3,134.4z"/>
		<path class="st51" d="M218.5,143.3c4.1,0,8.1,0,12.2,0c2.6,0,4.6,1.3,5.2,3.3c0.8,2.5,0.2,5.1-2,6.4c-2,1.2-4.6,1.2-6.8,0.9
			c-3.7-0.5-7.4-0.2-11.1-0.3c-3.4-0.1-6.7,0-10.1,0c-3.5,0-5.4-1.8-5.8-4.6c-0.4-3.3,2.7-5.7,5.7-5.7
			C210.1,143.3,214.3,143.3,218.5,143.3z"/>
		<path class="st51" d="M109.7,155.3c-3.1,0-3.2,0-2.6-2.7c0.7-3.2,1.5-6.3,2.4-9.4c0.3-1.1,3.4-1.8,4.6-1.1
			c1.2,0.7,0.6,1.8,0.3,2.8c-0.7,2.7-1.8,5.4-2.1,8.2C112.1,155.3,111.1,155.5,109.7,155.3z"/>
		<path class="st51" d="M86.9,155.3c-2.5,0-2.7-0.2-2.1-2.5c0.7-3,1.4-6.1,2.2-9.1c0.4-1.4,4.3-2.5,5.3-1.5c0.3,0.3,0.2,0.6,0.2,1
			c-0.8,3.6-1.6,7.2-2.5,10.7C89.5,155.5,88.1,155.3,86.9,155.3z"/>
		<path class="st51" d="M78.3,142c3.3,0,3.3,0,2.5,3c-0.7,2.7-1.3,5.5-2,8.2c-0.4,1.7-3.8,2.9-5.2,1.9c-0.6-0.4-0.3-1-0.2-1.6
			c0.7-3.1,1.5-6.2,2.1-9.3C75.9,142.4,76.7,141.6,78.3,142z"/>
		<path class="st51" d="M98,155.2c-2,0.5-2.6-0.2-2.1-2.3c0.9-3.2,1.6-6.5,2.4-9.7c0.3-1.1,3.2-1.9,4.6-1.1c1.3,0.7,0.6,1.8,0.3,2.8
			c-0.7,2.7-1.8,5.3-2.1,8C101,155.3,99.9,155.5,98,155.2z"/>
		<path class="st51" d="M120.9,155.3c-3.3,0-3.3-0.1-2.6-3c0.7-2.9,1.5-5.8,2.3-8.6c0.5-1.6,2.6-2.4,4.5-1.6
			c1.6,0.6,0.7,1.9,0.4,2.9c-0.7,2.7-1.7,5.4-2,8.2C123.3,155.3,122.3,155.5,120.9,155.3z"/>
		<path class="st51" d="M132,155.3c-3.1,0-3,0-2.3-2.7c0.8-2.9,1.5-5.9,2.3-8.8c0.4-1.6,4-2.6,5.2-1.5c0.5,0.4,0.2,0.9,0.1,1.4
			c-0.9,3.5-1.8,7-2.7,10.5C134.1,155.9,132.7,155,132,155.3z"/>
	</g>
</g>
<g id="Layer_13">
	<g>
		<path class="st53" d="M436.2,224.7l1.3,11.2c0.5,5.6-2.3,11-7.2,13.9L240.7,360.9c-9.6,5.6-21.4,5.7-31.1,0.1L72.7,282.4
			c-4.5-2.6-7.7-6.7-9.3-11.4c-1.3-3.8-1.1-7.9,0.1-11.8l1.9-6.1l117.4-7.6c0,0,222.4-26.2,235.6-24.6
			C431.6,222.6,436.2,224.7,436.2,224.7z"/>
	</g>
	<g>
		<g>
			<path class="st54" d="M432.2,219.3L291.3,137c-10.5-6.5-23.7-6.6-34.2-0.3l-188.4,112c-4.8,2.9-4.8,9.9,0.1,12.7l143.9,83.5
				c8.8,5.1,19.6,5.1,28.4,0l191-110.6C437.8,231,437.9,222.8,432.2,219.3z"/>
		</g>
	</g>
	<path class="st55" d="M417.5,226.3c0,1.6-0.8,3-2.2,3.9l-90.2,53l-4.1,2.4l-90.6,53.2c-1.4,0.8-3.1,0.8-4.5,0l-32.6-18.5l-4.2-2.4
		l-10.9-6.1l-4.2-2.4l-9.4-5.3l-3.3-1.9L132,285.6l-2.7-1.5l-0.7-0.4l-3.6-2l-10.2-5.8l-4.2-2.4l-25.3-14.3
		c-1.4-0.8-2.3-2.3-2.3-3.9c0-1.6,0.8-3,2.2-3.9l90.7-52.8l4.1-2.4l92.5-53.8c1.4-0.8,3.1-0.8,4.5,0l30.1,17.4l4.1,2.4l9.9,5.7
		l4.1,2.4l5.2,3l3.3,1.9l29.4,17l3.3,1.9l3.8,2.2l4.1,2.4l10,5.8l4.2,2.4l26.6,15.4C416.7,223.3,417.5,224.7,417.5,226.3z"/>
	<g>
		<polygon class="st56" points="325.1,283.2 321,285.6 176.1,198.7 180.2,196.3 		"/>
	</g>
	<g>
		<path class="st56" d="M249.6,260c-16.6,0-29.5-8.3-29.5-18.9c0-10.6,13-18.9,29.5-18.9s29.5,8.3,29.5,18.9
			C279.1,251.7,266.2,260,249.6,260z M249.6,226.4c-13.8,0-25.4,6.7-25.4,14.7c0,8,11.6,14.7,25.4,14.7s25.4-6.7,25.4-14.7
			C275,233.1,263.4,226.4,249.6,226.4z"/>
	</g>
	<g>
		<polygon class="st56" points="388.8,207.1 353.8,226.7 272.9,180.2 307.3,159.9 311.4,162.3 281.2,180.2 353.8,221.9 384.6,204.7 
					"/>
	</g>
	<g>
		<polygon class="st56" points="374.6,198.9 353.8,211.7 299.3,181.1 321.3,168 325.4,170.4 307.5,180.9 353.7,206.9 370.5,196.5 		
			"/>
	</g>
	<g>
		<polygon class="st56" points="229.4,299.6 193.3,320.4 189.1,318 221,299.7 146.1,257.5 130.2,266.9 130.2,266.9 128.6,267.8 
			114.9,275.9 110.7,273.6 146.1,252.7 		"/>
	</g>
	<g>
		<polygon class="st56" points="201.1,298.8 178.3,311.9 174.1,309.5 192.6,298.8 148.2,273.7 145.3,275.3 141.8,277.2 132,282.6 
			129.3,284.1 128.6,284.5 128.6,283.7 125.1,281.7 128.6,279.8 132,277.9 137.5,274.8 141,272.9 148.2,269 		"/>
	</g>
	<g>
		<path class="st56" d="M321.7,221.4c-19.7,0-35.8-10.5-35.8-23.3c0-3.8,1.4-7.5,4-10.8l1.1-1.4l53.2,30.6l-4,1.6
			C334.7,220.2,328.3,221.4,321.7,221.4z M292.2,191.3c-1.4,2.2-2.1,4.4-2.1,6.8c0,10.6,14.2,19.1,31.6,19.1c4.4,0,8.7-0.6,12.7-1.6
			L292.2,191.3z"/>
	</g>
	<g>
		<path class="st56" d="M210.8,293.6l-53.7-29.9l4-1.6c5.6-2.3,12-3.5,18.5-3.6c19.7-0.3,35.9,10,36.1,22.8
			c0.1,3.8-1.3,7.5-3.9,10.9L210.8,293.6z M167,264.4l42.6,23.7c1.4-2.2,2-4.5,2-6.8c-0.1-10.6-14.5-18.9-31.9-18.7
			C175.3,262.7,171,263.3,167,264.4z"/>
	</g>
	<g>
		<polygon class="st56" points="366.7,172.5 366.7,194.3 363.4,192.4 363.4,174.4 333.9,158 333.9,175.4 330.6,173.4 330.6,152.4 		
			"/>
	</g>
	<g>
		<polygon class="st56" points="164.7,286.1 164.7,304.2 161.4,302.3 161.4,288.1 141.8,277.2 137.5,274.8 132,271.7 132,285.6 
			129.3,284.1 128.6,284.5 128.6,266.1 130.2,266.9 130.2,266.9 141,272.9 145.3,275.3 		"/>
	</g>
</g>
<g id="Layer_14" class="st0">
	<path class="st57" d="M327.6,169.8c-8,0-75.7,0-118.9,0c-19.1,0-33.4,0-35.6,0c-23.4,0-42.5,19.1-42.5,42.5
		c0,23.4,19.1,42.5,42.5,42.5l4.8,4.3h35.6H319l8.6-4.3c23.4,0,42.5-19.1,42.5-42.5C370.1,188.9,351,169.8,327.6,169.8z"/>
	<path class="st58" d="M306.5,214.4l2-2.2V139c0-4.7,4.2-8.3,8.8-7.6c4.3,0.7,8.9,1.1,13.6,1.1c2.8,0,5.6-0.1,8.4-0.4l2.6-4.1V63.5
		l-2.6-2.2c-2.7-0.3-5.5-0.4-8.4-0.4c-30.6,0-55.4,16-55.4,35.8v115.6l3,2.2H306.5z"/>
	<path class="st58" d="M293.7,111c0-4.2,1.5-8.3,4.4-11.4c11.4-12.5,28.6-15.4,43.9-14.9V63.5l-2.6-2.2c-2.7-0.3-5.5-0.4-8.4-0.4
		c-30.6,0-55.4,16-55.4,35.8v115.6l3,2.2h15.2L293.7,111L293.7,111z"/>
	<path class="st58" d="M161.4,61.3l-2.2,4.1v62.6l2.2,4.1c2.7,0.3,5.5,0.4,8.4,0.4c4.7,0,9.2-0.4,13.6-1.1c4.6-0.8,8.8,2.9,8.8,7.6
		v73.2l1.9,2.6h25.8l5.4-2.6V96.7c0-19.8-24.8-35.8-55.4-35.8C167,60.9,164.2,61,161.4,61.3z"/>
	<path class="st58" d="M208.7,114.3c0-4.5-4-8.1-8.5-7.4c-16.1,2.3-29.9,1.1-40.9-1.6v22.7l2.2,4.1c2.7,0.3,5.5,0.4,8.4,0.4
		c4.7,0,9.2-0.4,13.6-1.1c4.6-0.8,8.8,2.9,8.8,7.6v73.2l1.9,2.6h14.6L208.7,114.3z"/>
	<path class="st59" d="M161.4,61.3c-9.4,0.9-18,3.3-25.2,6.9c-3.4,1.7-5.6,5.2-5.6,9v39c0,3.8,2.2,7.3,5.6,9
		c7.2,3.5,15.8,6,25.2,6.9L161.4,61.3L161.4,61.3z"/>
	<g class="st1">
		<g>
			<polygon class="st60" points="161.4,61.3 161.4,61.3 161.4,61.3 			"/>
			<path class="st60" d="M161.4,132.1v-26.3c0,0,0,0,0,0V61.3c-9.4,0.9-17.9,3.3-25.2,6.9c-3.4,1.7-5.6,5.2-5.6,9v39
				c0,3.4,1.7,6.5,4.4,8.3c0.2,0.2,0.5,0.3,0.7,0.4c0.2,0.1,0.3,0.2,0.5,0.3c0,0,0,0,0,0c0,0,0,0,0,0c1.1,0.6,2.3,1,3.5,1.5
				c0.7,0.3,1.4,0.6,2.1,0.9C147.8,129.9,154.4,131.5,161.4,132.1z"/>
		</g>
	</g>
	<path class="st61" d="M370.1,77.2c0-2.2-0.7-4.3-2-6c-0.9-1.3-2.2-2.3-3.6-3.1c-7.2-3.5-15.8-6-25.2-6.9v70.9
		c9.4-0.9,18-3.3,25.2-6.9c3.4-1.7,5.6-5.2,5.6-9V89.1c0,0,0,0,0,0V77.2z"/>
	<path class="st58" d="M275.5,212.3h33v44.4h-33V212.3z"/>
	<path class="st58" d="M275.5,212.3h18.2v44.4h-18.2V212.3z"/>
	<path class="st58" d="M192.2,212.3h33v44.4h-33V212.3z"/>
	<path class="st58" d="M192.2,205h21.9v59h-21.9V205z"/>
	<path class="st62" d="M358.2,254.7h-64.5l-41.7,0l-45,0h-64.5c-6.5,0-11.8,5.3-11.8,11.8v0v91.7v0c0,23.2,10,44.2,26,58.6
		c1.9,1.7,3.8,3.3,5.9,4.8c2,1.5,4.1,2.9,6.3,4.3c12,7.3,26,11.5,41.1,11.5H243h47.9c43.8,0,79.2-35.5,79.2-79.2v-91.7
		C370.1,260,364.8,254.7,358.2,254.7z"/>
	<path class="st61" d="M244.1,254.7L244.1,254.7l-51.9,0v17.2c0,6.3,6.9,11.4,15.3,11.4h0h51.9h33.8c8.4,0,15.3-5.1,15.3-11.4v-17.2
		H244.1z"/>
</g>
<g id="Layer_15" class="st0">
	<g class="st1">
		<g>
			<path class="st63" d="M269.7,204.7v-4.5h-48.4c-8.3,0-15.7-2.9-21.2-7.7c-5.5-4.8-8.8-11.3-8.8-18.5v0c0-7.2,3.4-13.8,8.8-18.5
				c5.5-4.8,13-7.7,21.2-7.7h48.4c8.3,0,15.7,2.9,21.2,7.7c5.5,4.8,8.8,11.3,8.8,18.5v0c0,7.2-3.4,13.8-8.8,18.5
				c-5.5,4.8-13,7.7-21.2,7.7V204.7v4.5c11.1,0,21.2-4,28.5-10.4c7.3-6.4,11.8-15.2,11.8-24.9v0c0-9.7-4.6-18.5-11.8-24.9
				c-7.3-6.4-17.4-10.4-28.5-10.4h-48.4c-11.1,0-21.2,4-28.5,10.4c-7.3,6.4-11.8,15.2-11.8,24.9v0c0,9.7,4.6,18.5,11.8,24.9
				c7.3,6.4,17.4,10.4,28.5,10.4h48.4V204.7z"/>
			<path class="st63" d="M269.7,356.8v-4.5h-48.4c-8.3,0-15.7-2.9-21.2-7.7c-5.5-4.8-8.8-11.3-8.8-18.5v0c0-7.2,3.4-13.8,8.8-18.5
				c5.5-4.8,13-7.7,21.2-7.7h48.4c8.3,0,15.7,2.9,21.2,7.7c5.5,4.8,8.8,11.3,8.8,18.5v0c0,7.2-3.4,13.8-8.8,18.5
				c-5.5,4.8-13,7.7-21.2,7.7V356.8v4.5c11.1,0,21.2-4,28.5-10.4c7.3-6.4,11.8-15.2,11.8-24.9v0c0-9.7-4.6-18.5-11.8-24.9
				c-7.3-6.4-17.4-10.4-28.5-10.4h-48.4c-11.1,0-21.2,4-28.5,10.4c-7.3,6.4-11.8,15.2-11.8,24.9v0c0,9.7,4.6,18.5,11.8,24.9
				c7.3,6.4,17.4,10.4,28.5,10.4h48.4V356.8z"/>
		</g>
		<path class="st64" d="M289.6,204.8h-90.3c-3.6,0-6.4-2.9-6.4-6.4v-129c0-3.6,2.9-6.4,6.4-6.4h90.3c3.6,0,6.4,2.9,6.4,6.4v129
			C296,201.9,293.2,204.8,289.6,204.8z"/>
		<path class="st65" d="M289.6,204.8h-90.3c-3.6,0-6.4-2.9-6.4-6.4V89.2c0-3.6,2.9-6.4,6.4-6.4h90.3c3.6,0,6.4,2.9,6.4,6.4v109.2
			C296,201.9,293.2,204.8,289.6,204.8z"/>
		<path class="st64" d="M289.6,437.1h-90.3c-3.6,0-6.4-2.9-6.4-6.4V303.1c0-3.6,2.9-6.4,6.4-6.4h90.3c3.6,0,6.4,2.9,6.4,6.4v127.6
			C296,434.2,293.2,437.1,289.6,437.1z"/>
		<path class="st65" d="M289.6,407.4h-90.3c-3.6,0-6.4-2.9-6.4-6.4v-97.9c0-3.6,2.9-6.4,6.4-6.4h90.3c3.6,0,6.4,2.9,6.4,6.4v97.9
			C296,404.5,293.2,407.4,289.6,407.4z"/>
		<path class="st64" d="M342.3,266L342.3,266c-2.9,0-5.3-2.4-5.3-5.3v-24.6c0-2.9,2.4-5.3,5.3-5.3c2.9,0,5.3,2.4,5.3,5.3v24.6
			C347.7,263.6,345.3,266,342.3,266z"/>
		<path class="st66" d="M310.4,162.2c-7.6-1.1-15.8-0.8-22.6-0.7c-36.3,0.2-72.7,0-109,0c-12.5,0-22.6,10.2-22.6,22.7v94
			c0,20.9-9.1,68.6,32.7,59c38.2,0.1,75.1,0.2,113.3,0.3c33.2,6.8,31.9-25.5,31.2-45c-1.2-36-0.2-72.2-0.2-108.3v-0.2
			C333.2,169,322.6,163.9,310.4,162.2z"/>
		<path class="st67" d="M322.7,250c0,43-34.9,77.9-77.9,77.9h0c-43,0-77.9-34.9-77.9-77.9v0c0-43.1,34.9-78,78-78
			C287.8,172,322.7,206.9,322.7,250L322.7,250z"/>
		<path class="st64" d="M328.7,251.5c0,45.5-36.9,82.4-82.4,82.4h-3c-45.5,0-82.5-36.9-82.5-82.4v-3c0-45.5,36.9-82.5,82.5-82.5h3
			c45.5,0,82.5,36.9,82.5,82.5V251.5z"/>
		<path class="st68" d="M322.7,250c0,43.1-34.9,77.9-77.9,77.9h0c-43.1,0-78-34.9-78-78v0c0-43.1,34.9-78,78-78
			C287.8,172,322.7,206.9,322.7,250L322.7,250z"/>
		<rect x="332.7" y="239.1" class="st64" width="4.3" height="21.8"/>
		<path class="st64" d="M244.2,183.9v-6.1c0-0.3,0.2-0.5,0.5-0.5c0.3,0,0.5,0.2,0.5,0.5v6.1c0,0.3-0.2,0.5-0.5,0.5
			C244.4,184.4,244.2,184.2,244.2,183.9z"/>
		<path class="st64" d="M244.2,322.2v-6.1c0-0.3,0.2-0.5,0.5-0.5c0.3,0,0.5,0.2,0.5,0.5v6.1c0,0.3-0.2,0.5-0.5,0.5
			C244.4,322.7,244.2,322.5,244.2,322.2z"/>
		<path class="st64" d="M310.8,249.5h6.1c0.3,0,0.5,0.2,0.5,0.5c0,0.3-0.2,0.5-0.5,0.5h-6.1c-0.3,0-0.5-0.2-0.5-0.5
			C310.3,249.7,310.5,249.5,310.8,249.5z"/>
		<path class="st64" d="M172.5,249.5h6.1c0.3,0,0.5,0.2,0.5,0.5c0,0.3-0.2,0.5-0.5,0.5h-6.1c-0.3,0-0.5-0.2-0.5-0.5
			C172,249.7,172.2,249.5,172.5,249.5z"/>
		<path class="st64" d="M291.1,202.9l4.3-4.3c0.2-0.2,0.5-0.2,0.8,0c0.2,0.2,0.2,0.5,0,0.8l-4.3,4.3c-0.2,0.2-0.5,0.2-0.8,0
			C290.9,203.4,290.9,203.1,291.1,202.9z"/>
		<path class="st64" d="M193.3,300.6l4.3-4.3c0.2-0.2,0.5-0.2,0.8,0c0.2,0.2,0.2,0.5,0,0.8l-4.3,4.3c-0.2,0.2-0.5,0.2-0.8,0
			C193.1,301.2,193.1,300.9,193.3,300.6z"/>
		<path class="st64" d="M291.8,296.3l4.3,4.3c0.2,0.2,0.2,0.5,0,0.8c-0.2,0.2-0.5,0.2-0.8,0l-4.3-4.3c-0.2-0.2-0.2-0.5,0-0.8
			C291.3,296.1,291.6,296.1,291.8,296.3z"/>
		<path class="st64" d="M194,198.6l4.3,4.3c0.2,0.2,0.2,0.5,0,0.8c-0.2,0.2-0.5,0.2-0.8,0l-4.3-4.3c-0.2-0.2-0.2-0.5,0-0.8
			C193.5,198.4,193.8,198.4,194,198.6z"/>
		<path class="st64" d="M246.9,250.5c0,1.5-1.2,2.7-2.7,2.7c-1.5,0-2.7-1.2-2.7-2.7c0-1.5,1.2-2.7,2.7-2.7
			C245.7,247.8,246.9,249,246.9,250.5z"/>
		<path class="st64" d="M191.4,250.5L191.4,250.5c0-0.7,0.6-1.3,1.3-1.3h51.1c0.7,0,1.3,0.6,1.3,1.3c0,0.7-0.6,1.3-1.3,1.3h-51.1
			C191.9,251.8,191.4,251.2,191.4,250.5z"/>
		<path class="st64" d="M244.2,251.1L244.2,251.1c-1,0-1.9-0.9-1.9-1.9v-49.9c0-1,0.9-1.9,1.9-1.9c1,0,1.9,0.9,1.9,1.9v49.9
			C246.1,250.3,245.2,251.1,244.2,251.1z"/>
	</g>
</g>
<g id="Layer_16" class="st0">
	<g class="st1">
		<g>
			<g>
				<g>
					<path class="st69" d="M410.6,248.1H393v-55.6c0-50.5-41.1-91.5-91.5-91.5h-89.8V83.4h89.8c60.2,0,109.1,48.9,109.1,109.1
						L410.6,248.1L410.6,248.1z"/>
				</g>
			</g>
		</g>
		<path class="st69" d="M211.5,62.9L211.5,62.9c7.1,0,12.9,5.8,12.9,12.9V146c0,7.1-5.8,12.9-12.9,12.9h0c-7.1,0-12.9-5.8-12.9-12.9
			V75.8C198.6,68.7,204.4,62.9,211.5,62.9z"/>
		<path class="st70" d="M166.5,132.6h89.9c7.1,0,12.9,5.8,12.9,12.9v64.4c0,7.1-5.8,12.9-12.9,12.9h-89.9c-7.1,0-12.9-5.8-12.9-12.9
			v-64.4C153.6,138.4,159.3,132.6,166.5,132.6z"/>
		<g>
			<defs>
				<path id="SVGID_1_" d="M359.9,329.1c-1.6-59.9-39-111.6-91.6-133.9H152.5c-53.9,22.6-91.6,75.9-91.6,137.9
					c0,36.2,12.9,69.4,34.3,95.2c4.6,5.6,11.6,8.8,18.9,8.8h192.9c7.3,0,14.2-3.2,19-8.8C347.9,401.4,360.9,366.9,359.9,329.1z"/>
			</defs>
			<clipPath id="SVGID_2_">
				<use xlink:href="#SVGID_1_"  style="overflow:visible;"/>
			</clipPath>
			<path class="st71" d="M191.7,324.5c-43.6-16.2-91.4-13.6-128.2-9.6c-14.6,22.1-22.1,46.7-22.1,73.3c0,30,5.1,47.9,21.1,70.3
				h286.3c14.1-20.1,18-36.4,18-68.7c0-15.7-2.1-30.2-6.4-43.4C309,354.4,252.4,347,191.7,324.5L191.7,324.5z"/>
		</g>
		<g>
			<g>
				<defs>
					<path id="SVGID_3_" d="M359.9,329.1c0-1.9-0.1-3.7-0.3-5.6c-4.7-72.6-66.6-128.3-139.4-128.3h-19.7
						c-74.5,0-137.1,58.3-139.7,132.8c-0.1,1.7-0.1,3.4-0.1,5.1c0,36.2,12.9,69.4,34.3,95.2c4.6,5.6,11.6,8.8,18.9,8.8h192.9
						c7.3,0,14.2-3.2,19-8.8C347.9,401.4,360.9,366.9,359.9,329.1z"/>
				</defs>
				<clipPath id="SVGID_4_">
					<use xlink:href="#SVGID_3_"  style="overflow:visible;"/>
				</clipPath>
			</g>
			<g>
				<defs>
					<path id="SVGID_5_" d="M359.9,329.1c0-1.9-0.1-3.7-0.3-5.6c-4.7-72.6-66.6-128.3-139.4-128.3h-19.7
						c-74.5,0-137.1,58.3-139.7,132.8c-0.1,1.7-0.1,3.4-0.1,5.1c0,36.2,12.9,69.4,34.3,95.2c4.6,5.6,11.6,8.8,18.9,8.8h192.9
						c7.3,0,14.2-3.2,19-8.8C347.9,401.4,360.9,366.9,359.9,329.1z"/>
				</defs>
				<use xlink:href="#SVGID_5_"  style="overflow:visible;fill:#F4A09C;"/>
				<clipPath id="SVGID_6_">
					<use xlink:href="#SVGID_5_"  style="overflow:visible;"/>
				</clipPath>
				<g class="st72">
					<path class="st69" d="M191.7,324.5c-43.6-16.2-91.4-13.6-128.2-9.6c-14.6,22.1-22.1,46.7-22.1,73.3c0,30,5.1,47.9,21.1,70.3
						h286.3c14.1-20.1,18-36.4,18-68.7c0-15.7-2.1-30.2-6.4-43.4C309,354.4,252.4,347,191.7,324.5L191.7,324.5z"/>
				</g>
			</g>
			<g>
				<defs>
					<path id="SVGID_7_" d="M359.9,329.1c0-1.9-0.1-3.7-0.3-5.6c-4.7-72.6-66.6-128.3-139.4-128.3h-19.7
						c-74.5,0-137.1,58.3-139.7,132.8c-0.1,1.7-0.1,3.4-0.1,5.1c0,36.2,12.9,69.4,34.3,95.2c4.6,5.6,11.6,8.8,18.9,8.8h192.9
						c7.3,0,14.2-3.2,19-8.8C347.9,401.4,360.9,366.9,359.9,329.1z"/>
				</defs>
				<clipPath id="SVGID_8_">
					<use xlink:href="#SVGID_7_"  style="overflow:visible;"/>
				</clipPath>
			</g>
		</g>
		<g>
			<defs>
				<path id="SVGID_9_" d="M359.9,329.1c0-1.9-0.1-3.7-0.3-5.6c-4.7-72.6-66.6-128.3-139.4-128.3h-19.7
					c-74.5,0-137.1,58.3-139.7,132.8c-0.1,1.7-0.1,3.4-0.1,5.1c0,36.2,12.9,69.4,34.3,95.2c4.6,5.6,11.6,8.8,18.9,8.8h192.9
					c7.3,0,14.2-3.2,19-8.8C347.9,401.4,360.9,366.9,359.9,329.1z"/>
			</defs>
			<clipPath id="SVGID_10_">
				<use xlink:href="#SVGID_9_"  style="overflow:visible;"/>
			</clipPath>
			<path class="st73" d="M191.7,324.5c-43.6-16.2-91.4-13.6-128.2-9.6c-14.6,22.1-22.1,46.7-22.1,73.3c0,30,5.1,47.9,21.1,70.3
				h286.3c14.1-20.1,18-36.4,18-68.7c0-15.7-2.1-30.2-6.4-43.4C309,354.4,252.4,347,191.7,324.5L191.7,324.5z"/>
		</g>
		<path class="st70" d="M199.3,70.8h24.2c7.1,0,12.9,5.8,12.9,12.9v16.9c0,7.1-5.8,12.9-12.9,12.9h-24.2c-7.1,0-12.9-5.8-12.9-12.9
			V83.7C186.3,76.6,192.1,70.8,199.3,70.8z"/>
		<ellipse class="st70" cx="401.3" cy="284.8" rx="39" ry="55.3"/>
	</g>
</g>
<g id="Layer_17" class="st0">
	<g class="st1">
		<path class="st2" d="M317.5,118.7c0-19.8-16-35.8-35.8-35.8h-59.3c-19.8,0-35.8,16-35.8,35.8v0c0,0.6,0,1.2,0,1.8h0v68.3h16.3V160
			v-11.2v-15.5v-11.7v-1V117c0-10.3,8.4-18.7,18.7-18.7h60.7c10.3,0,18.7,8.4,18.7,18.7v3.4v1v11.7v15.5V160v28.8h16.3v-68.3h0
			C317.4,119.9,317.5,119.3,317.5,118.7L317.5,118.7z"/>
		<rect x="93" y="193.2" class="st3" width="318.4" height="184"/>
		<path class="st4" d="M113.6,162.1h41.5c5.9,0,10.7-4.8,10.7-10.7v-6.8c0-5.9-4.8-10.7-10.7-10.7h-41.5c-5.9,0-10.7,4.8-10.7,10.7
			v6.8C102.9,157.3,107.7,162.1,113.6,162.1z"/>
		<path class="st4" d="M349.6,162.1h41.5c5.9,0,10.7-4.8,10.7-10.7v-6.8c0-5.9-4.8-10.7-10.7-10.7h-41.5c-5.9,0-10.7,4.8-10.7,10.7
			v6.8C338.8,157.3,343.6,162.1,349.6,162.1z"/>
		<g>
			<g>
				<path class="st2" d="M383,297.1h-61.6c-3.6,0-6.6-3-6.6-6.6v-4.2c0-3.6,3-6.6,6.6-6.6H383c3.6,0,6.6,3,6.6,6.6v4.2
					C389.6,294.1,386.7,297.1,383,297.1z"/>
				<path class="st2" d="M180.8,279.7h-20v-20c0-4.8-3.9-8.7-8.7-8.7c-4.8,0-8.7,3.9-8.7,8.7v20h-20c-4.8,0-8.7,3.9-8.7,8.7
					s3.9,8.7,8.7,8.7h20v20c0,4.8,3.9,8.7,8.7,8.7c4.8,0,8.7-3.9,8.7-8.7v-20h20c4.8,0,8.7-3.9,8.7-8.7S185.6,279.7,180.8,279.7z"/>
				<path class="st2" d="M278,293.3c0.1-0.1,0.2-0.3,0.3-0.5c0.1-0.1,0.1-0.2,0.2-0.3c0.1-0.1,0.1-0.3,0.2-0.4
					c0.1-0.1,0.1-0.2,0.2-0.3c0.1-0.1,0.1-0.3,0.2-0.4c0-0.1,0.1-0.3,0.1-0.4c0-0.1,0.1-0.2,0.1-0.4c0-0.2,0.1-0.3,0.1-0.5
					c0-0.1,0-0.2,0.1-0.3c0-0.2,0.1-0.3,0.1-0.5c0-0.1,0-0.2,0-0.3c0-0.2,0-0.4,0-0.5c0,0,0,0,0-0.1c0-0.1,0-0.2,0-0.3
					c0-0.2,0-0.3,0-0.5c0-0.1,0-0.3-0.1-0.4c0-0.1,0-0.3-0.1-0.4c0-0.2-0.1-0.3-0.1-0.5c0-0.1-0.1-0.2-0.1-0.4
					c0-0.1-0.1-0.3-0.1-0.4c0-0.1-0.1-0.2-0.1-0.4c-0.1-0.1-0.1-0.3-0.2-0.4c-0.1-0.1-0.1-0.3-0.2-0.4c-0.1-0.1-0.1-0.2-0.2-0.4
					c-0.1-0.1-0.1-0.3-0.2-0.4c-0.1-0.1-0.2-0.2-0.2-0.3c-0.1-0.1-0.2-0.2-0.3-0.4c-0.1-0.1-0.2-0.2-0.3-0.3
					c-0.1-0.1-0.2-0.2-0.3-0.3c-0.1-0.1-0.2-0.2-0.4-0.3c-0.1-0.1-0.1-0.1-0.2-0.2l0,0c0,0,0,0-0.1,0c-0.1-0.1-0.3-0.2-0.4-0.3
					c-0.1-0.1-0.2-0.1-0.2-0.2c-0.2-0.1-0.3-0.2-0.5-0.3c-0.1-0.1-0.2-0.1-0.3-0.2c-0.2-0.1-0.3-0.2-0.5-0.2c-0.1,0-0.2-0.1-0.3-0.1
					c-0.1-0.1-0.3-0.1-0.4-0.2c-0.1,0-0.2-0.1-0.4-0.1c-0.1,0-0.3-0.1-0.4-0.1c-0.1,0-0.3-0.1-0.4-0.1c-0.1,0-0.2,0-0.4-0.1
					c-0.2,0-0.3-0.1-0.5-0.1c-0.1,0-0.2,0-0.3,0c-0.2,0-0.4,0-0.5,0c0,0,0,0-0.1,0h-19.9l23.8-32.6c2.8-3.9,2-9.3-1.9-12.1
					s-9.3-2-12.1,1.9l-33.9,46.4c0,0-0.1,0.1-0.1,0.1c-0.1,0.1-0.2,0.3-0.3,0.4c-0.1,0.1-0.1,0.2-0.2,0.3c-0.1,0.1-0.2,0.3-0.2,0.4
					c-0.1,0.1-0.1,0.2-0.2,0.3c-0.1,0.1-0.1,0.3-0.2,0.4c0,0.1-0.1,0.2-0.1,0.4c0,0.1-0.1,0.3-0.1,0.4c0,0.1-0.1,0.3-0.1,0.4
					c0,0.1-0.1,0.3-0.1,0.4c0,0.2-0.1,0.3-0.1,0.5c0,0.1,0,0.3,0,0.4c0,0.2,0,0.3,0,0.5c0,0.1,0,0.1,0,0.2c0,0.1,0,0.2,0,0.2
					c0,0.1,0,0.3,0,0.4c0,0.1,0,0.3,0,0.4c0,0.1,0,0.3,0.1,0.4c0,0.2,0.1,0.3,0.1,0.5c0,0.1,0.1,0.2,0.1,0.3c0,0.2,0.1,0.3,0.1,0.5
					c0,0.1,0.1,0.2,0.1,0.3c0.1,0.2,0.1,0.3,0.2,0.4c0.1,0.1,0.1,0.2,0.2,0.3c0.1,0.1,0.1,0.3,0.2,0.4c0.1,0.1,0.1,0.2,0.2,0.4
					c0.1,0.1,0.1,0.2,0.2,0.3c0.1,0.1,0.2,0.2,0.3,0.4c0.1,0.1,0.2,0.2,0.3,0.3c0.1,0.1,0.2,0.2,0.3,0.3c0.1,0.1,0.2,0.2,0.3,0.3
					c0.1,0.1,0.2,0.2,0.3,0.3c0.1,0.1,0.3,0.2,0.4,0.3c0.1,0,0.1,0.1,0.2,0.1c0,0,0.1,0,0.1,0.1c0.1,0.1,0.3,0.2,0.5,0.3
					c0.1,0.1,0.2,0.1,0.3,0.2c0.2,0.1,0.3,0.2,0.5,0.2c0.1,0.1,0.2,0.1,0.3,0.1c0.1,0.1,0.3,0.1,0.5,0.2c0.1,0,0.2,0.1,0.4,0.1
					c0.1,0,0.3,0.1,0.4,0.1c0.1,0,0.3,0.1,0.4,0.1c0.1,0,0.3,0.1,0.4,0.1c0.1,0,0.3,0.1,0.4,0.1c0.1,0,0.3,0,0.4,0
					c0.2,0,0.3,0,0.5,0c0.1,0,0.1,0,0.2,0H252l-25,29.4c-3.1,3.6-2.7,9.1,1,12.2c3.6,3.1,9.1,2.7,12.2-1l37.3-43.7c0,0,0,0,0-0.1
					c0.1-0.1,0.2-0.3,0.3-0.4C277.8,293.5,277.9,293.4,278,293.3z"/>
			</g>
		</g>
		<path class="st5" d="M81,193.2h342.3c7.8,0,14.2-6.3,14.2-14.2v-8.9c0-7.8-6.3-14.2-14.2-14.2H81c-7.8,0-14.2,6.3-14.2,14.2v8.9
			C66.8,186.9,73.2,193.2,81,193.2z"/>
		<path class="st5" d="M76.7,414.5H419c7.8,0,14.2-6.3,14.2-14.2v-8.9c0-7.8-6.3-14.2-14.2-14.2H76.7c-7.8,0-14.2,6.3-14.2,14.2v8.9
			C62.5,408.2,68.8,414.5,76.7,414.5z"/>
	</g>
</g>
<g id="Layer_18" class="st0">
	<rect x="90.7" y="138.2" class="st74" width="313.2" height="221.1"/>
	<g class="st1">
		<path class="st75" d="M196.1,134V149h106.3V134H196.1z M410.2,134h-97.3v25.5H185.7V134H88.5c-14.4,0-26,11.6-26,26v180.7
			c0,14.4,11.6,26,26,26h321.9c14.4,0,26-11.6,26-26V159.9C436.1,145.6,424.5,134,410.2,134z M154.1,199.7
			c13.9,0,25.2,11.2,25.2,25.2c0,13.9-11.2,25.2-25.2,25.2s-25.2-11.2-25.2-25.2C128.9,210.9,140.2,199.7,154.1,199.7z M193.5,330.7
			h-78.7V301c0-21.7,17.7-39.4,39.4-39.4c10.9,0,20.8,4.4,28,11.6c7.1,7.1,11.6,16.9,11.6,28v29.5L193.5,330.7L193.5,330.7z
			 M311.4,330.7h-77.7v-9.9h77.7V330.7z M388.9,297.9H233.8V288h155.1V297.9z M388.9,265.3H233.8v-9.9h155.1V265.3z M388.9,226.7
			H233.8v-32.2h155.1V226.7z"/>
	</g>
	<rect x="185.7" y="134" class="st76" width="127.2" height="25.5"/>
</g>
<g id="Layer_19" class="st0">
	<rect x="113.6" y="87.4" class="st77" width="278.6" height="165.9"/>
	<path class="st78" d="M224.5,183.6c2.4,2.4,2.4,6.3,0,8.6l-53.3,53.3c-2.4,2.4-6.3,2.4-8.6,0c-2.4-2.4-2.4-6.3,0-8.6l53.3-53.3
		C218.3,181.2,222.2,181.2,224.5,183.6"/>
	<path class="st78" d="M333.3,183.6c2.4,2.4,2.4,6.3,0,8.6L280,245.5c-2.4,2.4-6.3,2.4-8.6,0c-2.4-2.4-2.4-6.3,0-8.6l53.3-53.3
		C327.1,181.2,330.9,181.2,333.3,183.6"/>
	<rect x="115.4" y="230.7" class="st79" width="268.5" height="12.2"/>
	<rect x="116.3" y="290.1" class="st77" width="70.3" height="57.2"/>
	<rect x="315.2" y="290.1" class="st77" width="70.3" height="57.2"/>
	<rect x="193" y="272.2" class="st80" width="112.4" height="85.5"/>
	<path class="st78" d="M411.2,249.5h4c8.7,0,15-6.9,15-15V133.7c0-8.7-6.9-15-15-15h-4c-0.6,0-1.1,0-1.7,0.6V96.2
		c0-16.8-13.9-30.7-30.7-30.7H120.1c-16.8,0-30.7,13.9-30.7,30.7v23.1c-0.6,0-1.1-0.6-1.7-0.6h-4c-8.7,0-15,6.9-15,15v100.1
		c0,8.7,6.9,15,15,15h4c0.6,0,1.1,0,1.7-0.6v87.4h-5.8c-8.7,0-15,6.9-15,15v26c0,8.7,6.9,15,15,15h19.7v29.7c0,8.7,6.9,15,15,15
		h38.8c8.7,0,15-6.9,15-15v-29.5h155.1v29.5c0,8.7,6.9,15,15,15h38.2c8.7,0,15-6.9,15-15v-29.5h19.7c8.7,0,15-6.9,15-15v-26
		c0-8.7-6.9-15-15-15h-5.8v-86.9C410.6,248.9,410.6,249.5,411.2,249.5z M115.5,115.2c0-8.7,6.9-15,15-15H369c8.7,0,15,6.9,15,15
		v108.2c0,8.7-6.9,15-15,15H130.5c-8.7,0-15-6.9-15-15V115.2z M168.1,324.1h-33.6c-8.7,0-15-6.9-15-15c0-8.1,6.9-15,15-15h33.6
		c8.7,0,15,6.9,15,15C183.2,317.1,176.8,324.1,168.1,324.1z M300.7,349.6H198.8v-10.4H300v10.4H300.7z M300.7,318.9H198.8V309H300
		v9.8H300.7z M300.7,288.2H198.8v-10.4H300v10.4H300.7z M316.3,309c0-8.7,6.9-15,15-15h33.6c8.7,0,15,6.9,15,15s-6.9,15-15,15h-33.6
		C322.7,324.1,316.3,317.1,316.3,309z"/>
	<rect x="327.3" y="391.8" class="st80" width="68.2" height="10.4"/>
	<rect x="103.3" y="391.8" class="st80" width="69" height="10.4"/>
</g>
<g id="Layer_21" class="st0">
	<g class="st1">
		<path class="st7" d="M169.7,196c0,7.4-6,13.4-13.4,13.4h-40.2c-7.4,0-13.4-6-13.4-13.4c0-7.4,6-13.4,13.4-13.4h40.2
			C163.6,182.6,169.7,188.6,169.7,196"/>
		<path class="st8" d="M437.5,249.6c0-29.6-24-53.6-53.6-53.6H116.1c-29.6,0-53.6,24-53.6,53.6v160.8c0,14.8,12,26.7,26.7,26.7
			h321.5c14.8,0,26.7-12,26.7-26.7V249.6z"/>
		<path class="st7" d="M370.5,316.3c0,51.8-42,93.8-93.8,93.8c-51.8,0-93.8-42-93.8-93.8s42-93.8,93.8-93.8
			C328.6,222.5,370.5,264.5,370.5,316.3"/>
		<path class="st10" d="M354.2,316.3c0,43.1-35,78.1-78.1,78.1s-78.1-35-78.1-78.1s35-78.1,78.1-78.1
			C319.2,238.1,354.2,273.1,354.2,316.3"/>
		<path class="st9" d="M338.6,316.3c0,34.5-27.9,62.5-62.5,62.5c-34.5,0-62.5-27.9-62.5-62.5c0-34.5,27.9-62.5,62.5-62.5
			S338.6,281.7,338.6,316.3"/>
		<path class="st34" d="M322.9,316.3c0,25.9-21,46.8-46.8,46.8c-25.9,0-46.8-21-46.8-46.8c0-25.9,21-46.8,46.8-46.8
			C302,269.4,322.9,290.3,322.9,316.3"/>
		<path class="st8" d="M309.5,316.3c0,18.5-15,33.5-33.5,33.5s-33.5-15-33.5-33.5s15-33.5,33.5-33.5
			C294.5,282.8,309.5,297.8,309.5,316.3"/>
		<path class="st9" d="M89.2,396.2c0,7.4,6,13.4,13.4,13.4h40.2c7.4,0,13.4-6,13.4-13.4v-160c0-7.4-6-13.4-13.4-13.4h-13.4h-13.4
			c-14.8,0-26.7,12.1-26.7,26.7"/>
		<path class="st7" d="M411.3,236.7c0-7.4-6-13.4-13.4-13.4c-7.4,0-13.4,6-13.4,13.4c0,7.4,6,13.4,13.4,13.4
			C405.3,250.1,411.3,244.2,411.3,236.7"/>
		<path class="st35" d="M357.2,196c0,0-13.4,0-13.4-13.4c0-14.8-12-26.7-26.7-26.7h-80.3c-14.8,0-26.7,12-26.7,26.7
			c0,13.4-13.4,13.4-13.4,13.4H357.2z"/>
	</g>
</g>
<g id="Layer_22" class="st0">
	<path class="st81" d="M410.5,410.5c0,14.7-11.9,26.6-26.6,26.6H117.4c-14.7,0-26.6-11.9-26.6-26.6V90.6c0-14.7,11.9-26.6,26.6-26.6
		h266.5c14.7,0,26.6,11.9,26.6,26.6V410.5z"/>
	<path class="st82" d="M90.7,157.3V90.6c0-14.7,11.9-26.6,26.6-26.6h266.5c14.7,0,26.6,11.9,26.6,26.6v66.7"/>
	<path class="st83" d="M357.2,97.4c0,3.7-2.9,6.7-6.7,6.7s-6.7-2.9-6.7-6.7s2.9-6.7,6.7-6.7C354.3,90.6,357.2,93.6,357.2,97.4"/>
	<path class="st83" d="M383.9,97.4c0,3.7-2.9,6.7-6.7,6.7s-6.7-2.9-6.7-6.7s2.9-6.7,6.7-6.7C380.9,90.6,383.9,93.6,383.9,97.4"/>
	<path class="st6" d="M357.2,277.2c0,58.9-47.7,106.6-106.6,106.6S144,336.1,144,277.2s47.7-106.6,106.6-106.6
		C309.5,170.6,357.2,218.3,357.2,277.2"/>
	<path class="st84" d="M343.9,277.2c0,51.6-41.8,93.3-93.3,93.3s-93.3-41.8-93.3-93.3s41.8-93.3,93.3-93.3
		C302.2,183.9,343.9,225.7,343.9,277.2"/>
	<path class="st83" d="M330.6,277.2c0,44.1-35.8,80-80,80c-44.1,0-80-35.8-80-80c0-44.1,35.8-80,80-80
		C294.7,197.2,330.6,233.1,330.6,277.2"/>
	<path class="st84" d="M263.9,110.7c0,11-8.9,20-20,20s-20-8.9-20-20s8.9-20,20-20C255,90.6,263.9,99.6,263.9,110.7"/>
	<path class="st84" d="M317.2,111c0,11-8.9,20-20,20c-11,0-20-8.9-20-20s8.9-20,20-20C308.3,91,317.2,99.9,317.2,111"/>
	<path class="st84" d="M197.3,117.3c0,7.3-6,13.3-13.3,13.3h-53.3c-7.3,0-13.3-6-13.3-13.3V104c0-7.3,6-13.3,13.3-13.3H184
		c7.3,0,13.3,6,13.3,13.3V117.3z"/>
	<path class="st6" d="M154,257.2h31.2c7.3,0,13.3,6,13.3,13.3v13.3c0,7.3-6,13.3-13.3,13.3H154"/>
	<path class="st82" d="M410.5,410.5c0,14.7-11.9,26.6-26.6,26.6H117.4c-14.7,0-26.6-11.9-26.6-26.6"/>
</g>
</svg>
